<svg width="1252" height="952" viewBox="0 0 939 714" version="1.2" xml:space="preserve" xmlns="http://www.w3.org/2000/svg"><path style="fill:#566c8c;fill-opacity:1;fill-rule:evenodd;stroke:none;stroke-width:.75;stroke-linecap:butt;stroke-linejoin:miter;stroke-miterlimit:4;stroke-opacity:1" d="m436.852 227.09.02 6.086h.405l.004.504.008 2.023h-.418l.028 7.07 19.015-.074.012 3.274 2.941-.012-.019-5.508-1.773.008-.02-4.469-.375.004-.008-2.574 4.152-.015-.023-6.286-.52.004-.015-2.593h.484l-.023-6.668-2.168.004-.008-2.52h.867l-.008-2.8-.012-2.61-4.582.02-.02-3.895h-1.003l.015 3.941-4.476.016.008 2.488.011 2.778.868-.004.011 2.402-9.773.04.023 6.831h.34l.008 2.52zm0 0"/></svg>