<?xml version="1.0" encoding="UTF-8" standalone="no"?>
<svg
   width="939pt"
   height="714pt"
   viewBox="0 0 939 714"
   version="1.2"
   id="svg9750"
   sodipodi:docname="osu-base.svg"
   inkscape:version="1.3.2 (091e20e, 2023-11-25, custom)"
   inkscape:export-filename="buildings/nash-hall.svg"
   inkscape:export-xdpi="96"
   inkscape:export-ydpi="96"
   xml:space="preserve"
   xmlns:inkscape="http://www.inkscape.org/namespaces/inkscape"
   xmlns:sodipodi="http://sodipodi.sourceforge.net/DTD/sodipodi-0.dtd"
   xmlns="http://www.w3.org/2000/svg"
   xmlns:svg="http://www.w3.org/2000/svg"><sodipodi:namedview
     id="namedview9750"
     pagecolor="#ffffff"
     bordercolor="#666666"
     borderopacity="1.0"
     inkscape:showpageshadow="2"
     inkscape:pageopacity="0.0"
     inkscape:pagecheckerboard="0"
     inkscape:deskcolor="#d1d1d1"
     inkscape:document-units="pt"
     inkscape:zoom="4.0770988"
     inkscape:cx="617.71867"
     inkscape:cy="379.06857"
     inkscape:window-width="1920"
     inkscape:window-height="1057"
     inkscape:window-x="-8"
     inkscape:window-y="-8"
     inkscape:window-maximized="1"
     inkscape:current-layer="svg9750" /><defs
     id="defs1612" /><path
     style="fill:#566c8c;fill-opacity:1;fill-rule:evenodd;stroke:none;stroke-width:0.75;stroke-linecap:butt;stroke-linejoin:miter;stroke-miterlimit:4;stroke-opacity:1"
     d="m 436.85156,227.08984 0.0195,6.08594 h 0.40625 l 0.004,0.50391 0.008,2.02343 h -0.41797 l 0.0274,7.07032 19.01562,-0.0742 0.0117,3.27344 2.94141,-0.0117 -0.0195,-5.50782 -1.77344,0.008 -0.0195,-4.46875 -0.375,0.004 -0.008,-2.57422 4.15235,-0.0156 -0.0234,-6.28516 -0.51953,0.004 -0.0156,-2.59375 H 460.75 l -0.0234,-6.66797 -2.16797,0.004 -0.008,-2.51953 h 0.86719 l -0.008,-2.80079 -0.0117,-2.60937 -4.58203,0.0195 -0.0195,-3.89453 h -1.0039 l 0.0156,3.94141 -4.47656,0.0156 0.008,2.48828 0.0117,2.77735 0.86719,-0.004 0.0117,2.40234 -9.77344,0.0391 0.0234,6.83203 h 0.33984 l 0.008,2.51953 z m 0,0"
     id="path2236" /></svg>
