<?xml version="1.0" encoding="UTF-8" standalone="no"?>
<svg
   width="939pt"
   height="714pt"
   viewBox="0 0 939 714"
   version="1.2"
   id="svg9750"
   sodipodi:docname="osu-base.svg"
   inkscape:version="1.3.2 (091e20e, 2023-11-25, custom)"
   inkscape:export-filename="buildings/wilkinson-hall.svg"
   inkscape:export-xdpi="96"
   inkscape:export-ydpi="96"
   xml:space="preserve"
   xmlns:inkscape="http://www.inkscape.org/namespaces/inkscape"
   xmlns:sodipodi="http://sodipodi.sourceforge.net/DTD/sodipodi-0.dtd"
   xmlns="http://www.w3.org/2000/svg"
   xmlns:svg="http://www.w3.org/2000/svg"><sodipodi:namedview
     id="namedview9750"
     pagecolor="#ffffff"
     bordercolor="#666666"
     borderopacity="1.0"
     inkscape:showpageshadow="2"
     inkscape:pageopacity="0.0"
     inkscape:pagecheckerboard="0"
     inkscape:deskcolor="#d1d1d1"
     inkscape:document-units="pt"
     inkscape:zoom="16"
     inkscape:cx="716.71875"
     inkscape:cy="171.96875"
     inkscape:window-width="1920"
     inkscape:window-height="1057"
     inkscape:window-x="-8"
     inkscape:window-y="-8"
     inkscape:window-maximized="1"
     inkscape:current-layer="svg9750" /><defs
     id="defs1612" /><path
     style="fill:#566c8c;fill-opacity:1;fill-rule:evenodd;stroke:none;stroke-width:0.75;stroke-linecap:butt;stroke-linejoin:miter;stroke-miterlimit:4;stroke-opacity:1"
     d="m 473.875,151.14844 15.89844,-0.90625 0.043,-4.40235 2.84375,-0.17578 -0.25391,-5.46875 -0.0586,-1.48828 1.92968,-0.0937 -0.16015,-12.71875 1.10547,-0.0547 v -1.90625 l -0.0117,-0.92187 -0.0117,-0.98047 5.47656,-0.0625 -0.0156,-1.40234 0.76562,-0.0117 -0.0547,-5.4961 -7.30468,0.0781 0.0156,1.42969 -1.28125,0.0117 0.0234,2.09765 -4.28516,0.0469 0.0117,0.67968 -4.74609,0.0508 -0.0195,-1.75 -7.19141,0.0742 0.0977,8.92969 10.08593,-0.0625 0.41016,12.21094 1.75,-0.0156 -0.0117,3.375 -14.875,0.20703 z m 0,0"
     id="path2255" /></svg>
