<svg width="1252" height="952" viewBox="0 0 939 714" version="1.2" xml:space="preserve" xmlns="http://www.w3.org/2000/svg"><path style="fill:#566c8c;fill-opacity:1;fill-rule:evenodd;stroke:none;stroke-width:.75;stroke-linecap:butt;stroke-linejoin:miter;stroke-miterlimit:4;stroke-opacity:1" d="m473.875 151.148 15.898-.906.043-4.402 2.844-.176-.254-5.469-.058-1.488 1.93-.094-.16-12.718 1.105-.055v-1.906l-.012-.922-.012-.98 5.477-.063-.016-1.403.766-.011-.055-5.496-7.305.078.016 1.43-1.281.011.023 2.098-4.285.047.012.68-4.746.05-.02-1.75-7.191.074.097 8.93 10.086-.062.41 12.21 1.75-.015-.011 3.375-14.875.207zm0 0"/></svg>