<?xml version="1.0" encoding="UTF-8" standalone="no"?>
<svg
   width="939pt"
   height="714pt"
   viewBox="0 0 939 714"
   version="1.2"
   id="svg9750"
   sodipodi:docname="osu-base.svg"
   inkscape:version="1.3.2 (091e20e, 2023-11-25, custom)"
   inkscape:export-filename="buildings/bloss-hall.svg"
   inkscape:export-xdpi="96"
   inkscape:export-ydpi="96"
   xml:space="preserve"
   xmlns:inkscape="http://www.inkscape.org/namespaces/inkscape"
   xmlns:sodipodi="http://sodipodi.sourceforge.net/DTD/sodipodi-0.dtd"
   xmlns="http://www.w3.org/2000/svg"
   xmlns:svg="http://www.w3.org/2000/svg"><sodipodi:namedview
     id="namedview9750"
     pagecolor="#ffffff"
     bordercolor="#666666"
     borderopacity="1.0"
     inkscape:showpageshadow="2"
     inkscape:pageopacity="0.0"
     inkscape:pagecheckerboard="0"
     inkscape:deskcolor="#d1d1d1"
     inkscape:document-units="pt"
     inkscape:zoom="5.6568543"
     inkscape:cx="778.43618"
     inkscape:cy="624.994"
     inkscape:window-width="1920"
     inkscape:window-height="1057"
     inkscape:window-x="-8"
     inkscape:window-y="-8"
     inkscape:window-maximized="1"
     inkscape:current-layer="svg9750" /><defs
     id="defs1612" /><path
     style="fill:#566c8c;fill-opacity:1;fill-rule:evenodd;stroke:none;stroke-width:0.75;stroke-linecap:butt;stroke-linejoin:miter;stroke-miterlimit:4;stroke-opacity:1"
     d="m 600.67969,464.43359 0.0898,4.66797 h 1.38281 l -0.0898,0.95313 5.41406,0.008 -0.0547,-1.04688 0.78125,0.0859 v 1.03906 l 3.42579,0.0742 0.0781,-1.11328 h 1.07422 v 1.21094 l 4.71875,0.082 -0.0508,-1.11719 1.41797,1.32032 1.17578,1.10156 -1.03516,0.34375 0.51953,4.83984 1.20703,-0.17187 0.0977,0.8125 -1.21094,0.17578 0.33594,3.93359 1.46875,-0.17187 0.12109,0.63281 -1.33203,0.14844 0.51953,4.14843 1.21094,-0.17578 0.0859,0.77735 -1.25,0.16797 0.78906,5.26953 1.42188,-0.21094 0.25,2.03906 4.49609,-0.60547 -0.17187,-1.60156 2.32812,-0.21484 -0.34375,-5.10157 -1.38281,0.17188 -0.17188,-1.20703 1.21094,-0.26172 -0.4375,-4.75391 -1.29297,0.26172 -0.0859,-0.77734 1.46875,-0.26172 -0.43359,-3.28125 -1.64062,0.25781 -0.17188,-0.86719 1.20703,-0.34375 -0.34375,-4.57812 -1.38281,0.0859 h -2.50781 v -0.95313 l -0.60547,-0.86328 1.73047,-1.81641 -3.28516,-3.11328 -1.73047,1.90625 -0.94922,-0.6914 -0.17578,-1.73047 -0.42969,-1.29688 -4.83984,-0.17187 0.0117,1.15625 -1.51953,0.004 0.0156,-1.21875 -3.3789,0.0508 -0.0547,1.1289 -0.77734,0.0859 v -1.20703 h -4.66797 v 0.77734 l -0.94922,0.0859 -0.0859,1.12109 z m 0,0"
     id="path2275" /></svg>
