<svg width="1252" height="952" viewBox="0 0 939 714" version="1.2" xml:space="preserve" xmlns="http://www.w3.org/2000/svg"><path style="fill:#566c8c;fill-opacity:1;fill-rule:evenodd;stroke:none;stroke-width:.75;stroke-linecap:butt;stroke-linejoin:miter;stroke-miterlimit:4;stroke-opacity:1" d="m600.68 464.434.09 4.668h1.382l-.09.953 5.415.008-.055-1.047.781.086v1.039l3.426.074.078-1.113h1.074v1.21l4.719.083-.05-1.118 1.417 1.32 1.176 1.102-1.035.344.52 4.84 1.206-.172.098.813-1.21.175.335 3.934 1.469-.172.12.633-1.331.148.52 4.149 1.21-.176.086.777-1.25.168.79 5.27 1.421-.211.25 2.039 4.496-.606-.172-1.601 2.328-.215-.343-5.102-1.383.172-.172-1.207 1.211-.261-.438-4.754-1.292.261-.086-.777 1.468-.262-.433-3.28-1.64.257-.173-.867 1.207-.344-.343-4.578-1.383.086h-2.508v-.953l-.606-.864 1.73-1.816-3.284-3.113-1.73 1.906-.95-.691-.176-1.731-.43-1.297-4.84-.172.012 1.157-1.52.004.017-1.22-3.38.052-.054 1.128-.777.086v-1.207h-4.668v.778l-.95.086-.085 1.12zm0 0"/></svg>