<?xml version="1.0" encoding="UTF-8" standalone="no"?>
<svg
   width="939pt"
   height="714pt"
   viewBox="0 0 939 714"
   version="1.2"
   id="svg9750"
   sodipodi:docname="osu-base.svg"
   inkscape:version="1.3.2 (091e20e, 2023-11-25, custom)"
   inkscape:export-filename="buildings/north-utility.svg"
   inkscape:export-xdpi="96"
   inkscape:export-ydpi="96"
   xml:space="preserve"
   xmlns:inkscape="http://www.inkscape.org/namespaces/inkscape"
   xmlns:sodipodi="http://sodipodi.sourceforge.net/DTD/sodipodi-0.dtd"
   xmlns="http://www.w3.org/2000/svg"
   xmlns:svg="http://www.w3.org/2000/svg"><sodipodi:namedview
     id="namedview9750"
     pagecolor="#ffffff"
     bordercolor="#666666"
     borderopacity="1.0"
     inkscape:showpageshadow="2"
     inkscape:pageopacity="0.0"
     inkscape:pagecheckerboard="0"
     inkscape:deskcolor="#d1d1d1"
     inkscape:document-units="pt"
     inkscape:zoom="11.531777"
     inkscape:cx="573.76241"
     inkscape:cy="264.79007"
     inkscape:window-width="1920"
     inkscape:window-height="1057"
     inkscape:window-x="-8"
     inkscape:window-y="-8"
     inkscape:window-maximized="1"
     inkscape:current-layer="svg9750" /><defs
     id="defs1612" /><path
     style="fill:#566c8c;fill-opacity:1;fill-rule:evenodd;stroke:none;stroke-width:0.75;stroke-linecap:butt;stroke-linejoin:miter;stroke-miterlimit:4;stroke-opacity:1"
     d="m 451.44141,206.05859 2.35156,0.004 h 1.0039 l 8.23047,0.0117 v 0.6875 l 5.55469,0.0156 v -0.61718 l 3.58594,0.008 v 0.32422 l 1.53906,0.004 v 0.28516 h 0.52734 v 0.57812 l 2.60157,0.008 v -0.58985 l 9.40234,0.0195 0.0273,-14.27343 h 0.83204 l 0.008,-2.55469 H 486.875 l 0.008,-2.5625 h -0.64844 l 0.004,-1.18359 0.625,0.008 0.004,-1.30078 h -0.60157 l 0.0156,-9.48438 h 0.60156 l 0.004,-3.76953 h -1.35938 v -0.75 l -2.46093,-0.004 -0.004,0.94532 -2.73047,-0.004 -28.87891,-0.0547 -0.0117,7.30469 10.05078,0.0195 -0.0391,19.81641 -10,-0.0195 z m 16.86718,-26.92578 10.17969,-0.0117 0.0195,19.81641 -10.17578,0.0117 z m 0,0"
     id="path2226" /></svg>
