<svg width="1252" height="952" viewBox="0 0 939 714" version="1.2" xml:space="preserve" xmlns="http://www.w3.org/2000/svg"><path style="fill:#566c8c;fill-opacity:1;fill-rule:evenodd;stroke:none;stroke-width:.75;stroke-linecap:butt;stroke-linejoin:miter;stroke-miterlimit:4;stroke-opacity:1" d="m451.441 206.059 2.352.004h1.004l8.23.011v.688l5.555.015v-.617l3.586.008v.324l1.539.004v.286h.527v.578l2.602.008v-.59l9.402.02.028-14.274h.832l.008-2.555h-.231l.008-2.562h-.648l.004-1.184.625.008.004-1.3h-.602l.016-9.485h.601l.004-3.77h-1.36v-.75l-2.46-.004-.004.946-2.73-.004-28.88-.055-.011 7.305 10.05.02-.039 19.816-10-.02zm16.868-26.926 10.18-.012.019 19.817-10.176.011zm0 0"/></svg>