<svg width="1252" height="952" viewBox="0 0 939 714" version="1.2" xml:space="preserve" xmlns="http://www.w3.org/2000/svg"><path style="fill:#566c8c;fill-opacity:1;fill-rule:evenodd;stroke:none;stroke-width:.75;stroke-linecap:butt;stroke-linejoin:miter;stroke-miterlimit:4;stroke-opacity:1" d="m244.031 342.14.024 10.915 5.355-.012-.012-5.898 3.114-.004.004 2.085 4.46-.011-.003-2.016 1.23-.004-.004-4.015h-1.226v-1.497h-1.297l-.004-5.906h1.156v.399l4.422.004-.008 6.992h2.203v1.59l5.254.004.004-1.547h2.16v-1.414h-.254v-.688l1.3-.008v-1.16h-1.136l-.012-8.527h-1.578l-.004-2.528 7.086-.008.004 2.09 1.266-.004v-1.37h1.34l.004 2.98 6.039-.004-.004-4.305h.426v-.902h1.726v-3.04h-1.789v-2.347h-1.223v-.317l-3.921.004v.317h-1.165v.254l-1.41.004-.004-.688h-1.414v1.637l-2.969.004.004.992-12.398.016.004 5.683h1.293l.004 1.43h-.645v.762l-4.53.011-.02-9.44-2.055.003-.004-1.652-5.55.008.003 1.597-2.043.004v1.965h-.867v1.25h.863l.024 9.856 1.488-.004.004 3.062 3.77-.011.011 3.39zm0 0"/><path style="fill:#566c8c;fill-opacity:1;fill-rule:evenodd;stroke:none;stroke-width:.75;stroke-linecap:butt;stroke-linejoin:miter;stroke-miterlimit:4;stroke-opacity:1" d="m263.66 347.938 2.543.03-.004.31 2.348.03.027-2.363-4.887-.062zm0 0"/></svg>