<?xml version="1.0" encoding="UTF-8" standalone="no"?>
<svg
   width="939pt"
   height="714pt"
   viewBox="0 0 939 714"
   version="1.2"
   id="svg9750"
   sodipodi:docname="osu-base.svg"
   inkscape:version="1.3.2 (091e20e, 2023-11-25, custom)"
   inkscape:export-filename="buildings\forestry-science-lab.svg"
   inkscape:export-xdpi="96"
   inkscape:export-ydpi="96"
   xml:space="preserve"
   xmlns:inkscape="http://www.inkscape.org/namespaces/inkscape"
   xmlns:sodipodi="http://sodipodi.sourceforge.net/DTD/sodipodi-0.dtd"
   xmlns="http://www.w3.org/2000/svg"
   xmlns:svg="http://www.w3.org/2000/svg"><sodipodi:namedview
     id="namedview9750"
     pagecolor="#ffffff"
     bordercolor="#666666"
     borderopacity="1.0"
     inkscape:showpageshadow="2"
     inkscape:pageopacity="0.0"
     inkscape:pagecheckerboard="0"
     inkscape:deskcolor="#d1d1d1"
     inkscape:document-units="pt"
     inkscape:zoom="11.531777"
     inkscape:cx="346.21725"
     inkscape:cy="445.33467"
     inkscape:window-width="1920"
     inkscape:window-height="1057"
     inkscape:window-x="-8"
     inkscape:window-y="-8"
     inkscape:window-maximized="1"
     inkscape:current-layer="svg9750" /><defs
     id="defs1612" /><path
     style="fill:#566c8c;fill-opacity:1;fill-rule:evenodd;stroke:none;stroke-width:0.75;stroke-linecap:butt;stroke-linejoin:miter;stroke-miterlimit:4;stroke-opacity:1"
     d="m 244.03125,342.14062 0.0234,10.91407 5.35547,-0.0117 -0.0117,-5.89844 3.11328,-0.004 0.004,2.08594 4.46094,-0.0117 -0.004,-2.01562 1.23046,-0.004 -0.004,-4.01562 h -1.22656 v -1.4961 h -1.29688 l -0.004,-5.90625 h 1.15625 v 0.39844 l 4.42188,0.004 -0.008,6.99218 h 2.20312 v 1.58985 l 5.25391,0.004 0.004,-1.54687 h 2.16016 v -1.41406 h -0.25391 v -0.6875 l 1.30079,-0.008 v -1.16015 h -1.13672 l -0.0117,-8.52735 h -1.57813 l -0.004,-2.52734 7.08593,-0.008 0.004,2.08984 1.26563,-0.004 v -1.3711 h 1.33984 l 0.004,2.98047 6.03906,-0.004 -0.004,-4.30468 h 0.42578 v -0.90235 h 1.72657 v -3.03906 h -1.78907 v -2.34766 h -1.22265 v -0.3164 l -3.92188,0.004 v 0.31641 h -1.16406 v 0.25391 l -1.41016,0.004 -0.004,-0.6875 h -1.41407 v 1.63672 l -2.96875,0.004 0.004,0.99219 -12.39844,0.0156 0.004,5.68359 h 1.29297 l 0.004,1.42969 h -0.64453 v 0.76172 l -4.53125,0.0117 -0.0195,-9.44141 -2.05469,0.004 -0.004,-1.65234 -5.55078,0.008 0.004,1.59765 -2.04297,0.004 v 1.96484 h -0.86718 v 1.25 h 0.86328 l 0.0234,9.85547 1.48828,-0.004 0.004,3.0625 3.76953,-0.0117 0.0117,3.39062 z m 0,0"
     id="path2237" /><path
     style="fill:#566c8c;fill-opacity:1;fill-rule:evenodd;stroke:none;stroke-width:0.75;stroke-linecap:butt;stroke-linejoin:miter;stroke-miterlimit:4;stroke-opacity:1"
     d="m 263.66016,347.9375 2.54296,0.0312 -0.004,0.30859 2.34765,0.0312 0.0274,-2.36328 -4.88672,-0.0625 z m 0,0"
     id="path3929" /></svg>
