<svg width="1252" height="952" viewBox="0 0 939 714" version="1.2" xml:space="preserve" xmlns="http://www.w3.org/2000/svg"><path style="fill:#566c8c;fill-opacity:1;fill-rule:evenodd;stroke:none;stroke-width:.75;stroke-linecap:butt;stroke-linejoin:miter;stroke-miterlimit:4;stroke-opacity:1" d="m674.797 119.84 1.367-.047.023 7.594.696.27.023 1.488-.297.101.024.496h.324l-.125.695 1.539.57.742-2.28.723.296.074-.171 1.738.64.72-.07-2.88 8.34-1.265.023.046 3.004 4.114-.031.441-1.059.215.098.273-.668 1.23.512.704-2-.703-.196 3.176-8.582-1.196-.965.446-.933-1.723-.524.707-2.093 8.418-.07.016.902 2.382.558 1.07-4.336-3.163-1.14-1.145-1.551-2.437.043v.648l-6.637.086-.453 1.02-2.895.105-1.988-5.851-3.586 1.168.008 1.75-.223.273v.57l-.449.102zm0 0"/></svg>