<?xml version="1.0" encoding="UTF-8" standalone="no"?>
<svg
   width="939pt"
   height="714pt"
   viewBox="0 0 939 714"
   version="1.2"
   id="svg9750"
   sodipodi:docname="osu-base.svg"
   inkscape:version="1.3.2 (091e20e, 2023-11-25, custom)"
   inkscape:export-filename="buildings/graf-hall.svg"
   inkscape:export-xdpi="96"
   inkscape:export-ydpi="96"
   xml:space="preserve"
   xmlns:inkscape="http://www.inkscape.org/namespaces/inkscape"
   xmlns:sodipodi="http://sodipodi.sourceforge.net/DTD/sodipodi-0.dtd"
   xmlns="http://www.w3.org/2000/svg"
   xmlns:svg="http://www.w3.org/2000/svg"><sodipodi:namedview
     id="namedview9750"
     pagecolor="#ffffff"
     bordercolor="#666666"
     borderopacity="1.0"
     inkscape:showpageshadow="2"
     inkscape:pageopacity="0.0"
     inkscape:pagecheckerboard="0"
     inkscape:deskcolor="#d1d1d1"
     inkscape:document-units="pt"
     inkscape:zoom="2.8284271"
     inkscape:cx="887.94934"
     inkscape:cy="199.58089"
     inkscape:window-width="1920"
     inkscape:window-height="1057"
     inkscape:window-x="-8"
     inkscape:window-y="-8"
     inkscape:window-maximized="1"
     inkscape:current-layer="svg9750" /><defs
     id="defs1612" /><path
     style="fill:#566c8c;fill-opacity:1;fill-rule:evenodd;stroke:none;stroke-width:0.75;stroke-linecap:butt;stroke-linejoin:miter;stroke-miterlimit:4;stroke-opacity:1"
     d="m 674.79687,119.83984 1.36719,-0.0469 0.0234,7.59375 0.69531,0.26953 0.0234,1.48828 -0.29688,0.10156 0.0234,0.4961 h 0.32422 l -0.125,0.69531 1.53906,0.57031 0.74219,-2.28125 0.72266,0.29688 0.0742,-0.17188 1.73828,0.64063 0.71875,-0.0703 -2.87891,8.33985 -1.26562,0.0234 0.0469,3.0039 4.11328,-0.0312 0.44141,-1.05859 0.21484,0.0977 0.27344,-0.66796 1.23047,0.51171 0.70312,-2 -0.70312,-0.19531 3.17578,-8.58203 -1.19531,-0.96484 0.44531,-0.9336 -1.72266,-0.52343 0.70703,-2.09375 8.41797,-0.0703 0.0156,0.90235 2.38281,0.55859 1.07031,-4.33594 -3.16406,-1.14062 -1.14453,-1.55078 -2.4375,0.043 v 0.64843 l -6.63672,0.0859 -0.45312,1.01953 -2.89454,0.10547 -1.98828,-5.85156 -3.58593,1.16797 0.008,1.75 -0.22266,0.27344 v 0.57031 l -0.44922,0.10156 z m 0,0"
     id="path2306" /></svg>
