<?xml version="1.0" encoding="UTF-8" standalone="no"?>
<svg
   width="939pt"
   height="714pt"
   viewBox="0 0 939 714"
   version="1.2"
   id="svg9750"
   sodipodi:docname="gill-coliseum.svg"
   inkscape:version="1.3.2 (091e20e, 2023-11-25)"
   inkscape:export-filename="buildings\reeser.svg"
   inkscape:export-xdpi="96"
   inkscape:export-ydpi="96"
   xmlns:inkscape="http://www.inkscape.org/namespaces/inkscape"
   xmlns:sodipodi="http://sodipodi.sourceforge.net/DTD/sodipodi-0.dtd"
   xmlns="http://www.w3.org/2000/svg"
   xmlns:svg="http://www.w3.org/2000/svg">
  <sodipodi:namedview
     id="namedview9750"
     pagecolor="#ffffff"
     bordercolor="#666666"
     borderopacity="1.0"
     inkscape:showpageshadow="2"
     inkscape:pageopacity="0.0"
     inkscape:pagecheckerboard="0"
     inkscape:deskcolor="#d1d1d1"
     inkscape:document-units="pt"
     inkscape:zoom="2"
     inkscape:cx="600.5"
     inkscape:cy="617.5"
     inkscape:window-width="1312"
     inkscape:window-height="449"
     inkscape:window-x="0"
     inkscape:window-y="37"
     inkscape:window-maximized="0"
     inkscape:current-layer="svg9750" />
  <defs
     id="defs1612" />
  <path
     style="fill:#566c8c;fill-opacity:1;fill-rule:evenodd;stroke:#566c8c;stroke-width:0.75;stroke-linecap:butt;stroke-linejoin:miter;stroke-miterlimit:4;stroke-opacity:1"
     d="m 475.5625,448.42969 0.0195,5.66015 2.15234,-0.004 0.0547,16.61328 -2.05859,0.008 0.0195,5.78906 2.10547,-0.008 0.008,2.61328 5.02344,-0.0117 0.004,2.33203 18.61719,-0.0625 5.05469,-0.0156 -0.008,-2.61719 -0.008,-2.28515 2.83204,-0.008 -0.0195,-5.30468 1.08594,-0.004 -0.0547,-17.82422 -1.38671,0.004 -0.0156,-4.9336 -2.94141,0.008 -0.004,-2.1211 -4.21875,0.0117 -0.008,-2.91016 -23.26954,0.0742 0.0117,2.87891 -0.76953,0.004 0.004,2.10937 z m 0,0"
     id="path2221" />
</svg>
