<svg width="1252" height="952" viewBox="0 0 939 714" version="1.2" xmlns="http://www.w3.org/2000/svg"><path style="fill:#566c8c;fill-opacity:1;fill-rule:evenodd;stroke:#566c8c;stroke-width:.75;stroke-linecap:butt;stroke-linejoin:miter;stroke-miterlimit:4;stroke-opacity:1" d="m475.563 448.43.019 5.66 2.152-.004.055 16.613-2.059.008.02 5.79 2.105-.009.008 2.613 5.024-.011.004 2.332 18.617-.063 5.055-.015-.008-2.618-.008-2.285 2.832-.008-.02-5.304 1.086-.004-.054-17.825-1.387.004-.016-4.933-2.941.008-.004-2.121-4.219.011-.008-2.91-23.27.074.012 2.88-.77.003.005 2.11zm0 0"/></svg>