<svg width="1252" height="952" viewBox="0 0 939 714" version="1.2" xml:space="preserve" xmlns="http://www.w3.org/2000/svg"><path style="fill:#566c8c;fill-opacity:1;fill-rule:evenodd;stroke:none;stroke-width:.75;stroke-linecap:butt;stroke-linejoin:miter;stroke-miterlimit:4;stroke-opacity:1" d="m573.91 383.703 2.492 9.617-.902.172.766 2.848 2.75-.57 1.547 5.062 4.238-1.086.84-.2-.157-7.831-2.41-8.89-.77.05-.081-1.18-.461-6.312-.383-.035-.035-3.989 4.793-4.925 4.289.285v.773l7.297.219.02.355 8.48 2.172 7.203.036h.539l1.129-4.5-5.434-1.23-10.86-2.704-14.077-.52-.012.293-2.613-.082-.504.438-.727-.52-5.672 5.41 1.024 1.153-.895 1.316.781 13.797zm53.05-16.41 3.735.043.024-2.29-3.735-.034zm0 0"/></svg>