<?xml version="1.0" encoding="UTF-8" standalone="no"?>
<svg
   width="939pt"
   height="714pt"
   viewBox="0 0 939 714"
   version="1.2"
   id="svg9750"
   sodipodi:docname="osu-base.svg"
   inkscape:version="1.3.2 (091e20e, 2023-11-25, custom)"
   inkscape:export-filename="buildings/goss-stadium.svg"
   inkscape:export-xdpi="96"
   inkscape:export-ydpi="96"
   xml:space="preserve"
   xmlns:inkscape="http://www.inkscape.org/namespaces/inkscape"
   xmlns:sodipodi="http://sodipodi.sourceforge.net/DTD/sodipodi-0.dtd"
   xmlns="http://www.w3.org/2000/svg"
   xmlns:svg="http://www.w3.org/2000/svg"><sodipodi:namedview
     id="namedview9750"
     pagecolor="#ffffff"
     bordercolor="#666666"
     borderopacity="1.0"
     inkscape:showpageshadow="2"
     inkscape:pageopacity="0.0"
     inkscape:pagecheckerboard="0"
     inkscape:deskcolor="#d1d1d1"
     inkscape:document-units="pt"
     inkscape:zoom="16"
     inkscape:cx="721.09375"
     inkscape:cy="540.28125"
     inkscape:window-width="1920"
     inkscape:window-height="1057"
     inkscape:window-x="-8"
     inkscape:window-y="-8"
     inkscape:window-maximized="1"
     inkscape:current-layer="svg9750" /><defs
     id="defs1612" /><path
     style="fill:#566c8c;fill-opacity:1;fill-rule:evenodd;stroke:none;stroke-width:0.75;stroke-linecap:butt;stroke-linejoin:miter;stroke-miterlimit:4;stroke-opacity:1"
     d="m 573.91016,383.70312 2.49218,9.61719 -0.90234,0.17188 0.76562,2.84765 2.75,-0.57031 1.54688,5.0625 4.23828,-1.08594 0.83984,-0.19922 -0.15625,-7.83203 -2.41015,-8.89062 -0.76953,0.0508 -0.082,-1.17969 -0.46094,-6.3125 -0.38281,-0.0351 -0.0352,-3.98829 4.79297,-4.92578 4.28906,0.28516 v 0.77344 l 7.29688,0.21875 0.0195,0.35547 8.48047,2.17187 7.20312,0.0352 h 0.53906 l 1.12891,-4.5 -5.43359,-1.23047 -10.85938,-2.70313 -14.07812,-0.51953 -0.0117,0.29297 -2.61328,-0.082 -0.50391,0.4375 -0.72656,-0.51953 -5.67188,5.41015 1.02344,1.15235 -0.89453,1.3164 0.78125,13.79688 z m 0,0"
     id="path2253" /><path
     style="fill:#566c8c;fill-opacity:1;fill-rule:evenodd;stroke:none;stroke-width:0.75;stroke-linecap:butt;stroke-linejoin:miter;stroke-miterlimit:4;stroke-opacity:1"
     d="m 626.96094,367.29297 3.73437,0.043 0.0234,-2.28907 -3.73438,-0.0351 z m 0,0"
     id="path3998" /></svg>
