<?xml version="1.0" encoding="UTF-8" standalone="no"?>
<svg
   width="939pt"
   height="714pt"
   viewBox="0 0 939 714"
   version="1.2"
   id="svg9750"
   sodipodi:docname="osu-base.svg"
   inkscape:version="1.3.2 (091e20e, 2023-11-25, custom)"
   inkscape:export-filename="buildings/softball-stadiumsvg"
   inkscape:export-xdpi="96"
   inkscape:export-ydpi="96"
   xml:space="preserve"
   xmlns:inkscape="http://www.inkscape.org/namespaces/inkscape"
   xmlns:sodipodi="http://sodipodi.sourceforge.net/DTD/sodipodi-0.dtd"
   xmlns="http://www.w3.org/2000/svg"
   xmlns:svg="http://www.w3.org/2000/svg"><sodipodi:namedview
     id="namedview9750"
     pagecolor="#ffffff"
     bordercolor="#666666"
     borderopacity="1.0"
     inkscape:showpageshadow="2"
     inkscape:pageopacity="0.0"
     inkscape:pagecheckerboard="0"
     inkscape:deskcolor="#d1d1d1"
     inkscape:document-units="pt"
     inkscape:zoom="11.313709"
     inkscape:cx="828.86173"
     inkscape:cy="761.15625"
     inkscape:window-width="1920"
     inkscape:window-height="1057"
     inkscape:window-x="-8"
     inkscape:window-y="-8"
     inkscape:window-maximized="1"
     inkscape:current-layer="svg9750" /><defs
     id="defs1612" /><path
     style="fill:#566c8c;fill-opacity:1;fill-rule:evenodd;stroke:none;stroke-width:0.75;stroke-linecap:butt;stroke-linejoin:miter;stroke-miterlimit:4;stroke-opacity:1"
     d="m 549.98437,620.57031 1.64454,0.0312 3.44921,0.0664 -0.0312,1.58984 1.17188,0.0234 -0.0391,2.01562 3.04297,0.0586 0.0117,-0.70703 5.77735,0.11328 -0.10156,5.3164 h -0.17969 l -0.0664,3.50391 0.26172,0.004 -0.0312,1.66015 -1.90625,-0.0351 0.0664,-3.39453 -4.6875,-0.0937 0.008,-0.25 -3.54297,-0.0703 -0.0234,1.30469 -1.30859,-0.0273 -0.11328,5.73828 1.1914,0.0234 -0.0273,1.35156 5.17578,0.0977 0.008,-0.29296 6.01954,0.11328 -0.008,0.39843 3.27344,0.0625 0.004,-0.23828 3.62109,0.0703 0.11719,-6.14454 0.25781,0.004 0.0703,-3.66406 -0.28906,-0.008 0.11328,-5.82813 0.28125,0.004 0.0703,-3.65235 -0.23046,-0.004 0.11328,-5.75 0.2539,0.004 0.0742,-3.69531 -0.15234,-0.004 0.0312,-1.59765 -0.92578,-0.0195 0.0234,-1.27344 -5.89453,-0.11328 -0.0234,1.34375 -1.03516,-0.0234 -0.0312,1.42578 -0.17969,-0.004 -0.0703,3.67187 0.23828,0.004 -0.0352,1.83593 -5.84765,-0.11328 0.008,-0.42968 -3.14453,-0.0625 -0.0352,1.92968 -1.23437,-0.0273 -0.0273,1.45703 -3.45312,-0.0664 -1.65625,-0.0312 z m 0,0"
     id="path2260" /></svg>
