<svg width="1252" height="952" viewBox="0 0 939 714" version="1.2" xml:space="preserve" xmlns="http://www.w3.org/2000/svg"><path style="fill:#566c8c;fill-opacity:1;fill-rule:evenodd;stroke:none;stroke-width:.75;stroke-linecap:butt;stroke-linejoin:miter;stroke-miterlimit:4;stroke-opacity:1" d="m549.984 620.57 1.645.032 3.45.066-.032 1.59 1.172.023-.04 2.016 3.044.058.011-.707 5.778.114-.102 5.316h-.18l-.066 3.504.262.004-.031 1.66-1.907-.035.067-3.395-4.688-.093.008-.25-3.543-.07-.023 1.304-1.309-.027-.113 5.738 1.191.024-.027 1.351 5.176.098.008-.293 6.02.113-.009.399 3.274.062.004-.238 3.621.07.117-6.144.258.004.07-3.665-.289-.008.113-5.828.282.004.07-3.652-.23-.004.113-5.75.254.004.074-3.695-.152-.004.03-1.598-.925-.02.023-1.273-5.894-.113-.024 1.344-1.035-.024-.03 1.426-.18-.004-.07 3.672.237.004-.035 1.836-5.847-.114.008-.43-3.145-.062-.035 1.93-1.235-.027-.027 1.457-3.453-.067-1.656-.03zm0 0"/></svg>