<svg width="1252" height="952" viewBox="0 0 939 714" version="1.2" xml:space="preserve" xmlns="http://www.w3.org/2000/svg"><path style="fill:#566c8c;fill-opacity:1;fill-rule:evenodd;stroke:none;stroke-width:.75;stroke-linecap:butt;stroke-linejoin:miter;stroke-miterlimit:4;stroke-opacity:1" d="m618.637 518.89.593 6.27.836-.176.305 4.024 15.07-2.012v-1.023l1.84-.102v.785l6.106-.816-.34-3.035-.82.133-.067-2.114-2.73.305v-.473h.445l.41-18.11.918-.136v.578l7.672-1.054.207 2.453 2.184-.512.035.852 3.066-.512-.715-6.137-.988.137-.207-3.887-14.937 1.977v.957l-1.774.133v-.918l-6.496.851.332 3.508.941-.242.036.61.175-.052-.015 1.485 2.46-.282-.296 9.59.281.012v.805h-.351l-.051 8.101-1.121.074-.016-.668-7.492.977-.172-2.336-2.219.508-.015-.93zm0 0"/></svg>