<?xml version="1.0" encoding="UTF-8" standalone="no"?>
<svg
   width="939pt"
   height="714pt"
   viewBox="0 0 939 714"
   version="1.2"
   id="svg9750"
   sodipodi:docname="osu-base.svg"
   inkscape:version="1.3.2 (091e20e, 2023-11-25, custom)"
   inkscape:export-filename="buildings/carrie-hall.svg"
   inkscape:export-xdpi="96"
   inkscape:export-ydpi="96"
   xml:space="preserve"
   xmlns:inkscape="http://www.inkscape.org/namespaces/inkscape"
   xmlns:sodipodi="http://sodipodi.sourceforge.net/DTD/sodipodi-0.dtd"
   xmlns="http://www.w3.org/2000/svg"
   xmlns:svg="http://www.w3.org/2000/svg"><sodipodi:namedview
     id="namedview9750"
     pagecolor="#ffffff"
     bordercolor="#666666"
     borderopacity="1.0"
     inkscape:showpageshadow="2"
     inkscape:pageopacity="0.0"
     inkscape:pagecheckerboard="0"
     inkscape:deskcolor="#d1d1d1"
     inkscape:document-units="pt"
     inkscape:zoom="5.6568543"
     inkscape:cx="778.43618"
     inkscape:cy="624.994"
     inkscape:window-width="1920"
     inkscape:window-height="1057"
     inkscape:window-x="-8"
     inkscape:window-y="-8"
     inkscape:window-maximized="1"
     inkscape:current-layer="svg9750" /><defs
     id="defs1612" /><path
     style="fill:#566c8c;fill-opacity:1;fill-rule:evenodd;stroke:none;stroke-width:0.75;stroke-linecap:butt;stroke-linejoin:miter;stroke-miterlimit:4;stroke-opacity:1"
     d="m 618.63672,518.89062 0.59375,6.26954 0.83594,-0.17579 0.30468,4.02344 15.07032,-2.01172 v -1.02343 l 1.83984,-0.10157 v 0.78516 l 6.10547,-0.81641 -0.33985,-3.03515 -0.82031,0.13281 -0.0664,-2.11328 -2.73047,0.30469 v -0.47266 h 0.44531 l 0.41016,-18.10938 0.91796,-0.13671 v 0.57812 l 7.67188,-1.05469 0.20703,2.45313 2.18359,-0.51172 0.0352,0.85156 3.06641,-0.51172 -0.71485,-6.13672 -0.98828,0.13672 -0.20703,-3.88672 -14.9375,1.97657 v 0.95703 l -1.77344,0.13281 v -0.91797 l -6.49609,0.85156 0.33203,3.50782 0.94141,-0.24219 0.0351,0.60937 0.17578,-0.0508 -0.0156,1.48438 2.46094,-0.28125 -0.29688,9.58984 0.28125,0.0117 v 0.80469 h -0.35156 l -0.0508,8.10156 -1.1211,0.0742 -0.0156,-0.66797 -7.49219,0.97656 -0.17187,-2.33593 -2.21875,0.50781 -0.0156,-0.92969 z m 0,0"
     id="path2254" /></svg>
