<svg width="1252" height="952" viewBox="0 0 939 714" version="1.2" xml:space="preserve" xmlns="http://www.w3.org/2000/svg"><path style="fill:#566c8c;fill-opacity:1;fill-rule:evenodd;stroke:none;stroke-width:.75;stroke-linecap:butt;stroke-linejoin:miter;stroke-miterlimit:4;stroke-opacity:1" d="m75.027 286.344.012 2.879 1.106-.004.003 1.488 7.211-.023.008 2.918H82.31l.003.46-1.425.004.004 1.489 1.464-.004v.43l1.032-.005.007 1.864 2.004-.004.004 1.117 1.489-.004v.676l-3.414.011.011 2.754-1.105.004.008 2.313 1.148-.004.008 2.73 2.722-.004v.121l2.282-.004v-.16l2.71-.008-.019-7.742-1.543.004-.008-1.957 1.403-.008-.008-1.902h.16l-.004-2.25h-.164l-.016-6.637h.165l-.008-2.2h-.102l-.008-1.824-1.367.004-.008-2.636-4.156.011.012 2.653-5.367.015v-.109l-2.29.008v.133l-1.8.004.008 3.394zm0 0"/></svg>