<?xml version="1.0" encoding="UTF-8" standalone="no"?>
<svg
   width="939pt"
   height="714pt"
   viewBox="0 0 939 714"
   version="1.2"
   id="svg9750"
   sodipodi:docname="osu-base.svg"
   inkscape:version="1.3.2 (091e20e, 2023-11-25, custom)"
   inkscape:export-filename="buildings\biological-curation.svg"
   inkscape:export-xdpi="96"
   inkscape:export-ydpi="96"
   xml:space="preserve"
   xmlns:inkscape="http://www.inkscape.org/namespaces/inkscape"
   xmlns:sodipodi="http://sodipodi.sourceforge.net/DTD/sodipodi-0.dtd"
   xmlns="http://www.w3.org/2000/svg"
   xmlns:svg="http://www.w3.org/2000/svg"><sodipodi:namedview
     id="namedview9750"
     pagecolor="#ffffff"
     bordercolor="#666666"
     borderopacity="1.0"
     inkscape:showpageshadow="2"
     inkscape:pageopacity="0.0"
     inkscape:pagecheckerboard="0"
     inkscape:deskcolor="#d1d1d1"
     inkscape:document-units="pt"
     inkscape:zoom="4.0770988"
     inkscape:cx="182.11479"
     inkscape:cy="505.87443"
     inkscape:window-width="1920"
     inkscape:window-height="1057"
     inkscape:window-x="-8"
     inkscape:window-y="-8"
     inkscape:window-maximized="1"
     inkscape:current-layer="svg9750" /><defs
     id="defs1612" /><path
     style="fill:#566c8c;fill-opacity:1;fill-rule:evenodd;stroke:none;stroke-width:0.75;stroke-linecap:butt;stroke-linejoin:miter;stroke-miterlimit:4;stroke-opacity:1"
     d="m 75.027344,286.34375 0.01172,2.87891 1.105469,-0.004 0.0039,1.48828 7.210937,-0.0234 0.0078,2.91797 h -1.058594 l 0.0039,0.46094 -1.425781,0.004 0.0039,1.48828 1.464844,-0.004 v 0.42969 l 1.03125,-0.004 0.0078,1.86328 2.003907,-0.004 0.0039,1.11718 1.488281,-0.004 v 0.67578 l -3.414063,0.0117 0.01172,2.7539 -1.105469,0.004 0.0078,2.3125 1.148437,-0.004 0.0078,2.73047 2.722656,-0.004 v 0.12109 l 2.28125,-0.004 v -0.16015 l 2.710938,-0.008 -0.01953,-7.74219 -1.542969,0.004 -0.0078,-1.95703 1.402344,-0.008 -0.0078,-1.90234 h 0.160156 l -0.0039,-2.25 h -0.164063 l -0.01563,-6.63672 h 0.164062 l -0.0078,-2.19922 h -0.101562 l -0.0078,-1.82422 -1.367187,0.004 -0.0078,-2.63672 -4.15625,0.0117 0.01172,2.65234 -5.367188,0.0156 v -0.10938 l -2.289062,0.008 v 0.13282 l -1.800782,0.004 0.0078,3.39453 z m 0,0"
     id="path2297" /></svg>
