<?xml version="1.0" encoding="UTF-8" standalone="no"?>
<svg
   width="939pt"
   height="714pt"
   viewBox="0 0 939 714"
   version="1.2"
   id="svg9750"
   sodipodi:docname="osu-base.svg"
   inkscape:version="1.3.2 (091e20e, 2023-11-25, custom)"
   inkscape:export-filename="buildings\truax-center.svg"
   inkscape:export-xdpi="96"
   inkscape:export-ydpi="96"
   xmlns:inkscape="http://www.inkscape.org/namespaces/inkscape"
   xmlns:sodipodi="http://sodipodi.sourceforge.net/DTD/sodipodi-0.dtd"
   xmlns="http://www.w3.org/2000/svg"
   xmlns:svg="http://www.w3.org/2000/svg">
  <sodipodi:namedview
     id="namedview9750"
     pagecolor="#ffffff"
     bordercolor="#666666"
     borderopacity="1.0"
     inkscape:showpageshadow="2"
     inkscape:pageopacity="0.0"
     inkscape:pagecheckerboard="0"
     inkscape:deskcolor="#d1d1d1"
     inkscape:document-units="pt"
     inkscape:zoom="2"
     inkscape:cx="538.75"
     inkscape:cy="694.25"
     inkscape:window-width="1920"
     inkscape:window-height="1057"
     inkscape:window-x="-8"
     inkscape:window-y="-8"
     inkscape:window-maximized="1"
     inkscape:current-layer="svg9750" />
  <defs
     id="defs1612" />
  <path
     style="fill:#d9cfc7;fill-opacity:1;fill-rule:evenodd;stroke:#b8a89c;stroke-width:0.75;stroke-linecap:butt;stroke-linejoin:miter;stroke-miterlimit:4;stroke-opacity:1"
     d="m 314.21875,510.60156 13.51172,0.0899 -0.0547,8.26953 9.02344,0.0625 0.0156,-2.48438 7.61328,0.0508 0.043,-5.86718 10.44141,0.0781 0.0625,-8.59766 -12.94922,-0.0937 0.0156,-2.39453 9.57421,0.0742 0.0547,-7.23437 -2.14453,-0.0117 0.0156,-2.26563 -3.35938,-5.125 -1.80078,-0.98828 -2.47656,-0.0781 0.0703,-2.3086 10.52344,0.31641 0.39062,-12.87891 -8.65234,-0.26172 -1.84766,-1.16015 -3.18359,-0.0234 -0.0156,2.19141 -5.28515,-0.0391 0.004,-0.98828 -3.0664,-0.0234 0.0351,-4.94532 -3.58984,-0.0273 -0.0586,8.21875 -3.17188,-0.0234 -0.0859,12.35938 -9.47265,-0.0664 z m 0,0"
     id="path2217" />
  <path
     style="fill:#d9cfc7;fill-opacity:1;fill-rule:evenodd;stroke:#b8a89c;stroke-width:0.75;stroke-linecap:butt;stroke-linejoin:miter;stroke-miterlimit:4;stroke-opacity:1"
     d="m 297.23047,476.57812 0.0195,1.35938 5.46484,-0.0664 h 4.28907 l 0.0859,-15.82031 -9.85547,-0.0859 z m 0,0"
     id="path2348" />
  <path
     style="fill:#d9cfc7;fill-opacity:1;fill-rule:evenodd;stroke:#b8a89c;stroke-width:0.75;stroke-linecap:butt;stroke-linejoin:miter;stroke-miterlimit:4;stroke-opacity:1"
     d="m 296.125,476.58984 0.10937,8.9336 6.57813,-0.0859 -0.0977,-7.56641 -5.46484,0.0664 -0.0195,-1.35938 z m 0,0"
     id="path2643" />
</svg>
