<svg width="1252" height="952" viewBox="0 0 939 714" version="1.2" xmlns="http://www.w3.org/2000/svg"><path style="fill:#566c8c;fill-opacity:1;fill-rule:evenodd;stroke:#566c8c;stroke-width:.75;stroke-linecap:butt;stroke-linejoin:miter;stroke-miterlimit:4;stroke-opacity:1" d="m314.219 510.602 13.511.09-.054 8.269 9.023.062.016-2.484 7.613.05.043-5.866 10.442.078.062-8.598-12.95-.094.016-2.394 9.575.074.054-7.234-2.144-.012.015-2.266-3.359-5.125-1.8-.988-2.477-.078.07-2.309 10.523.317.391-12.879-8.652-.262-1.848-1.16-3.184-.023-.015 2.191-5.285-.039.004-.988-3.067-.024.035-4.945-3.59-.027-.058 8.218-3.172-.023-.086 12.36-9.473-.067zm-16.989-34.024.02 1.36 5.465-.067h4.289l.086-15.82-9.856-.086zm0 0"/><path style="fill:#566c8c;fill-opacity:1;fill-rule:evenodd;stroke:#566c8c;stroke-width:.75;stroke-linecap:butt;stroke-linejoin:miter;stroke-miterlimit:4;stroke-opacity:1" d="m296.125 476.59.11 8.933 6.577-.085-.097-7.567-5.465.067-.02-1.36zm0 0"/></svg>