<?xml version="1.0" encoding="UTF-8" standalone="no"?>
<svg
   width="939pt"
   height="714pt"
   viewBox="0 0 939 714"
   version="1.2"
   id="svg9750"
   sodipodi:docname="osu-base.svg"
   inkscape:version="1.3.2 (091e20e, 2023-11-25, custom)"
   inkscape:export-filename="buildings/crops-research.svg"
   inkscape:export-xdpi="96"
   inkscape:export-ydpi="96"
   xml:space="preserve"
   xmlns:inkscape="http://www.inkscape.org/namespaces/inkscape"
   xmlns:sodipodi="http://sodipodi.sourceforge.net/DTD/sodipodi-0.dtd"
   xmlns="http://www.w3.org/2000/svg"
   xmlns:svg="http://www.w3.org/2000/svg"><sodipodi:namedview
     id="namedview9750"
     pagecolor="#ffffff"
     bordercolor="#666666"
     borderopacity="1.0"
     inkscape:showpageshadow="2"
     inkscape:pageopacity="0.0"
     inkscape:pagecheckerboard="0"
     inkscape:deskcolor="#d1d1d1"
     inkscape:document-units="pt"
     inkscape:zoom="22.627417"
     inkscape:cx="303.23832"
     inkscape:cy="244.2391"
     inkscape:window-width="1920"
     inkscape:window-height="1057"
     inkscape:window-x="-8"
     inkscape:window-y="-8"
     inkscape:window-maximized="1"
     inkscape:current-layer="svg9750" /><defs
     id="defs1612" /><path
     style="fill:#566c8c;fill-opacity:1;fill-rule:evenodd;stroke:none;stroke-width:0.75;stroke-linecap:butt;stroke-linejoin:miter;stroke-miterlimit:4;stroke-opacity:1"
     d="m 518.4375,305.16797 0.008,2.1289 4.3711,-0.0273 3.91406,-0.0273 0.0117,-4.54297 10.125,-0.0117 -0.0156,1.87891 17.71485,-0.0547 -0.10157,-1.6836 4.96875,0.0312 5.1211,0.0312 -0.004,-1.01171 1.41797,0.0273 0.12891,5.44922 4.03515,-0.0391 4.02344,-0.043 0.0352,-15.91797 0.008,-3.92578 0.008,-1.58594 h -1.57422 l -0.0625,-1.50781 -2.55859,0.043 -2.39063,0.0117 0.0274,1.54297 -1.75782,0.008 0.0508,1.63671 -0.0469,2.37891 -6.37891,-0.0547 -10.83593,-0.0547 -0.12891,-0.80079 -3.39844,0.0156 -3.02343,0.008 -0.0586,0.59375 -9.91406,0.0781 -5.45703,-0.004 0.0234,-2.17969 0.0234,-1.48437 -1.66797,-0.0274 -0.0664,-1.43359 -2.39844,0.0156 -2.21094,0.0117 0.043,1.30079 -1.69531,-0.0234 -0.0234,1.60156 -0.21875,11.03906 z m 0,0"
     id="path2223" /></svg>
