<svg width="1252" height="952" viewBox="0 0 939 714" version="1.2" xml:space="preserve" xmlns="http://www.w3.org/2000/svg"><path style="fill:#566c8c;fill-opacity:1;fill-rule:evenodd;stroke:none;stroke-width:.75;stroke-linecap:butt;stroke-linejoin:miter;stroke-miterlimit:4;stroke-opacity:1" d="m518.438 305.168.008 2.129 4.37-.027 3.915-.028.011-4.543 10.125-.011-.015 1.879 17.715-.055-.102-1.684 4.969.031 5.12.032-.003-1.012 1.418.027.129 5.45 4.035-.04 4.023-.043.036-15.918.008-3.925.008-1.586h-1.575l-.062-1.508-2.559.043-2.39.012.027 1.542-1.758.008.051 1.637-.047 2.38-6.379-.056-10.836-.054-.129-.801-3.398.016-3.024.008-.058.593-9.914.078-5.457-.004.023-2.18.024-1.484-1.668-.027-.067-1.434-2.398.016-2.211.012.043 1.3-1.695-.023-.024 1.602-.219 11.039zm0 0"/></svg>