<?xml version="1.0" encoding="UTF-8" standalone="no"?>
<svg
   width="939pt"
   height="714pt"
   viewBox="0 0 939 714"
   version="1.2"
   id="svg9750"
   sodipodi:docname="osu-base.svg"
   inkscape:version="1.3.2 (091e20e, 2023-11-25, custom)"
   inkscape:export-filename="buildings/merryfield-hall.svg"
   inkscape:export-xdpi="96"
   inkscape:export-ydpi="96"
   xml:space="preserve"
   xmlns:inkscape="http://www.inkscape.org/namespaces/inkscape"
   xmlns:sodipodi="http://sodipodi.sourceforge.net/DTD/sodipodi-0.dtd"
   xmlns="http://www.w3.org/2000/svg"
   xmlns:svg="http://www.w3.org/2000/svg"><sodipodi:namedview
     id="namedview9750"
     pagecolor="#ffffff"
     bordercolor="#666666"
     borderopacity="1.0"
     inkscape:showpageshadow="2"
     inkscape:pageopacity="0.0"
     inkscape:pagecheckerboard="0"
     inkscape:deskcolor="#d1d1d1"
     inkscape:document-units="pt"
     inkscape:zoom="5.6568543"
     inkscape:cx="931.70157"
     inkscape:cy="243.15634"
     inkscape:window-width="1920"
     inkscape:window-height="1057"
     inkscape:window-x="-8"
     inkscape:window-y="-8"
     inkscape:window-maximized="1"
     inkscape:current-layer="svg9750" /><defs
     id="defs1612" /><path
     style="fill:#566c8c;fill-opacity:1;fill-rule:evenodd;stroke:none;stroke-width:0.75;stroke-linecap:butt;stroke-linejoin:miter;stroke-miterlimit:4;stroke-opacity:1"
     d="m 699.42969,204.47656 1.52343,0.52344 -0.13281,0.83594 0.26563,0.85547 0.36328,0.51953 0.66797,0.30078 0.73047,-0.0703 0.51953,-0.3125 0.44922,-0.39844 0.39062,-0.61328 1.32031,0.45312 1.58203,-4.60937 4.625,1.58984 -0.80468,2.34766 1.48047,0.50781 0.10937,0.80859 0.35547,0.88282 0.65234,0.52343 1.05469,-0.0312 0.60938,-0.46875 0.39843,-0.62109 1.92188,0.66016 2.62109,-7.62891 3.91016,1.34375 0.55859,-1.63672 -4.25,-1.46875 0.98438,-2.86719 -6.27344,-2.15234 -0.63672,1.84766 -1.19531,-0.41016 -0.2461,0.72656 -3.62109,-1.24609 0.87891,-2.55469 -5.8711,-2.02344 z m 0,0"
     id="path2303" /></svg>
