<svg width="1252" height="952" viewBox="0 0 939 714" version="1.2" xml:space="preserve" xmlns="http://www.w3.org/2000/svg"><path style="fill:#566c8c;fill-opacity:1;fill-rule:evenodd;stroke:none;stroke-width:.75;stroke-linecap:butt;stroke-linejoin:miter;stroke-miterlimit:4;stroke-opacity:1" d="m699.43 204.477 1.523.523-.133.836.266.855.363.52.668.3.73-.07.52-.312.45-.399.39-.613 1.32.453 1.582-4.609 4.625 1.59-.804 2.347 1.48.508.11.809.355.883.652.523 1.055-.031.61-.469.398-.62 1.922.66 2.62-7.63 3.911 1.344.559-1.637-4.25-1.468.984-2.868-6.274-2.152-.636 1.848-1.196-.41-.246.726-3.62-1.246.878-2.555-5.87-2.023zm0 0"/></svg>