<svg width="1252" height="952" viewBox="0 0 939 714" version="1.2" xmlns="http://www.w3.org/2000/svg"><path style="fill:#566c8c;fill-opacity:1;fill-rule:evenodd;stroke:#566c8c;stroke-width:.75;stroke-linecap:butt;stroke-linejoin:miter;stroke-miterlimit:4;stroke-opacity:1" d="m426.652 561.598 17.836 18.804 6.707-6.359 6.457 6.809 10.012-9.504 3.695 2.793 3.422-.364-1.785 10.32 15.274-1.952 2.992-3.36.906.82 12.496-11.109-2.363-2.285 4.062-3.98 1.559-8.208 9.265 1.836.735-4.214-1.34-.149.434-2.422-.454-.758 1.122-2.421-4.774-8.196 4.82-4.941-2.183-2.18 3.172-3.094.933-.925-.953-1.075-1.187-1.308-.496.504-2.98-2.961.562-.563-28.184-30.101-5.187 4.625-9.985-5.371-4.066-2.184-7.028 19.77-5.441-1.852-22.363 20.902.926 5.84 1.68-.113.343 3.848-.582.128 2.367 2.47-10.129 9.612 6.281 6.622zm14.27-29.871 18.848-17.63 7.43 3.63 23.855 25.062 3.632 8.473-1.039 4.32-13.656 12.45-6.222.519-32.672-34.055zm0 0"/></svg>