<?xml version="1.0" encoding="UTF-8" standalone="no"?>
<svg
   width="939pt"
   height="714pt"
   viewBox="0 0 939 714"
   version="1.2"
   id="svg9750"
   sodipodi:docname="reeser.svg"
   inkscape:version="1.3.2 (091e20e, 2023-11-25)"
   xmlns:inkscape="http://www.inkscape.org/namespaces/inkscape"
   xmlns:sodipodi="http://sodipodi.sourceforge.net/DTD/sodipodi-0.dtd"
   xmlns="http://www.w3.org/2000/svg"
   xmlns:svg="http://www.w3.org/2000/svg">
  <sodipodi:namedview
     id="namedview9750"
     pagecolor="#ffffff"
     bordercolor="#666666"
     borderopacity="1.0"
     inkscape:showpageshadow="2"
     inkscape:pageopacity="0.0"
     inkscape:pagecheckerboard="0"
     inkscape:deskcolor="#d1d1d1"
     inkscape:document-units="pt"
     inkscape:zoom="4"
     inkscape:cx="604.5"
     inkscape:cy="682.25"
     inkscape:window-width="1312"
     inkscape:window-height="639"
     inkscape:window-x="0"
     inkscape:window-y="37"
     inkscape:window-maximized="0"
     inkscape:current-layer="svg9750" />
  <defs
     id="defs1612" />
  <path
     style="fill:#566c8c;fill-opacity:1;fill-rule:evenodd;stroke:#566c8c;stroke-width:0.75;stroke-linecap:butt;stroke-linejoin:miter;stroke-miterlimit:4;stroke-opacity:1"
     d="m 426.65234,561.59766 17.83594,18.80468 6.70703,-6.35937 6.45703,6.80859 10.01172,-9.5039 3.69531,2.79296 3.42188,-0.36328 -1.78516,10.32032 15.27344,-1.95313 2.99219,-3.35937 0.90625,0.82031 12.49609,-11.10938 -2.36328,-2.28515 4.0625,-3.98047 1.55859,-8.20703 9.26563,1.83593 0.73437,-4.21484 -1.33984,-0.14844 0.43359,-2.42187 -0.45312,-0.75781 1.12109,-2.42188 -4.77343,-8.19531 4.82031,-4.94141 -2.1836,-2.17969 3.17188,-3.09375 0.93359,-0.92578 -0.95312,-1.07422 -1.1875,-1.30859 -0.4961,0.50391 -2.98046,-2.96094 0.5625,-0.5625 -28.1836,-30.10156 -5.1875,4.625 -9.98437,-5.3711 -4.06641,-2.18359 -7.02734,19.76953 -5.44141,-1.85156 -22.36328,20.90234 0.92578,5.83985 1.67969,-0.11329 0.34375,3.84766 -0.58203,0.12891 2.36718,2.46875 -10.1289,9.61328 6.28125,6.62109 z m 14.26953,-29.8711 18.84766,-17.6289 7.42969,3.6289 23.85547,25.0625 3.63281,8.47266 -1.03906,4.32031 -13.65625,12.44922 -6.22266,0.51953 -32.67187,-34.05469 z m 0,0"
     id="building-001" />
</svg>
