<?xml version="1.0" encoding="UTF-8" standalone="no"?>
<svg
   width="939pt"
   height="714pt"
   viewBox="0 0 939 714"
   version="1.2"
   id="svg9750"
   sodipodi:docname="osu-base.svg"
   inkscape:version="1.3.2 (091e20e, 2023-11-25, custom)"
   inkscape:export-filename="buildings\dryden-hall.svg"
   inkscape:export-xdpi="96"
   inkscape:export-ydpi="96"
   xml:space="preserve"
   xmlns:inkscape="http://www.inkscape.org/namespaces/inkscape"
   xmlns:sodipodi="http://sodipodi.sourceforge.net/DTD/sodipodi-0.dtd"
   xmlns="http://www.w3.org/2000/svg"
   xmlns:svg="http://www.w3.org/2000/svg"><sodipodi:namedview
     id="namedview9750"
     pagecolor="#ffffff"
     bordercolor="#666666"
     borderopacity="1.0"
     inkscape:showpageshadow="2"
     inkscape:pageopacity="0.0"
     inkscape:pagecheckerboard="0"
     inkscape:deskcolor="#d1d1d1"
     inkscape:document-units="pt"
     inkscape:zoom="8.1541975"
     inkscape:cx="447.80618"
     inkscape:cy="506.54893"
     inkscape:window-width="1920"
     inkscape:window-height="1057"
     inkscape:window-x="-8"
     inkscape:window-y="-8"
     inkscape:window-maximized="1"
     inkscape:current-layer="svg9750" /><defs
     id="defs1612" /><path
     style="fill:#566c8c;fill-opacity:1;fill-rule:evenodd;stroke:none;stroke-width:0.75;stroke-linecap:butt;stroke-linejoin:miter;stroke-miterlimit:4;stroke-opacity:1"
     d="m 300.36328,344.35547 0.0117,1.23828 0.80078,0.52344 15.69531,-0.004 v 1.91797 h -0.5 l -0.004,10.89062 -2.05469,0.0312 0.004,-2.38671 -13.26563,-0.0156 -0.0391,13.71094 h 2.24219 l 0.008,-8.79297 8.15625,0.004 -0.008,8.75781 5.1914,0.004 v 2.2461 h 2.34766 v 0.27344 l 7.82031,0.008 0.004,-3.20313 h 1.01172 l 0.0351,-21.36718 h -0.98047 l 0.004,-1.83204 -4.75391,-0.008 0.008,-7.16797 -2.67579,-0.004 v -0.52735 h -0.47265 l 0.004,-1.67968 H 317.223 v -0.95313 l -13.66407,-0.0117 v 0.94531 h -1.60156 l -0.004,1.98829 h -0.4375 v 3.77343 l 0.7461,0.008 v 1.07421 H 301.125 Z m 0,0"
     id="path2235" /></svg>
