<svg width="1252" height="952" viewBox="0 0 939 714" version="1.2" xml:space="preserve" xmlns="http://www.w3.org/2000/svg"><path style="fill:#566c8c;fill-opacity:1;fill-rule:evenodd;stroke:none;stroke-width:.75;stroke-linecap:butt;stroke-linejoin:miter;stroke-miterlimit:4;stroke-opacity:1" d="m300.363 344.355.012 1.239.8.523 15.696-.004v1.918h-.5l-.004 10.89-2.055.032.004-2.387-13.265-.015-.04 13.71h2.243l.008-8.792 8.156.004-.008 8.757 5.191.004v2.247h2.348v.273l7.82.008.004-3.203h1.012l.035-21.367h-.98l.004-1.832-4.754-.008.008-7.168-2.676-.004v-.528h-.473l.004-1.68h-1.73v-.952l-13.664-.012v.945h-1.602l-.004 1.988h-.437v3.774l.746.008v1.074h-1.137Zm0 0"/></svg>