<?xml version="1.0" encoding="UTF-8" standalone="no"?>
<svg
   width="939pt"
   height="714pt"
   viewBox="0 0 939 714"
   version="1.2"
   id="svg9750"
   sodipodi:docname="osu-base.svg"
   inkscape:version="1.3.2 (091e20e, 2023-11-25, custom)"
   inkscape:export-filename="buildings/Sackett Hall.svg"
   inkscape:export-xdpi="96"
   inkscape:export-ydpi="96"
   xml:space="preserve"
   xmlns:inkscape="http://www.inkscape.org/namespaces/inkscape"
   xmlns:sodipodi="http://sodipodi.sourceforge.net/DTD/sodipodi-0.dtd"
   xmlns="http://www.w3.org/2000/svg"
   xmlns:svg="http://www.w3.org/2000/svg"><sodipodi:namedview
     id="namedview9750"
     pagecolor="#ffffff"
     bordercolor="#666666"
     borderopacity="1.0"
     inkscape:showpageshadow="2"
     inkscape:pageopacity="0.0"
     inkscape:pagecheckerboard="0"
     inkscape:deskcolor="#d1d1d1"
     inkscape:document-units="pt"
     inkscape:zoom="2.8829442"
     inkscape:cx="442.42966"
     inkscape:cy="482.31943"
     inkscape:window-width="1920"
     inkscape:window-height="1057"
     inkscape:window-x="-8"
     inkscape:window-y="-8"
     inkscape:window-maximized="1"
     inkscape:current-layer="svg9750" /><defs
     id="defs1612" /><path
     style="fill:#566c8c;fill-opacity:1;fill-rule:evenodd;stroke:none;stroke-width:0.75;stroke-linecap:butt;stroke-linejoin:miter;stroke-miterlimit:4;stroke-opacity:1"
     d="m 380.8125,300.95703 2.42969,0.008 2.71484,0.004 0.0234,-8.49609 3.96875,0.0117 -0.008,4.1836 5.54687,0.0156 0.0195,-7.14062 2.07813,0.008 v 1.125 l 4.62109,0.008 v -1.08593 l 1.95313,0.0117 -0.0195,7.25391 5.36329,0.008 0.0117,-4.67968 4.38672,0.008 -0.0234,8.85547 2.35546,0.0117 2.79297,0.004 0.0234,-9.28125 0.008,-3.7539 -4.66797,-0.0156 v -0.23437 l -4.96484,-0.0117 0.0273,-9.73828 9.64063,0.0195 0.0312,-13.1211 -5.14844,-0.0117 -0.0195,8.66407 -4.56641,-0.008 0.0117,-4.43359 -5.15625,-0.008 -0.0273,9.7539 -8.57813,-0.0234 0.0274,-9.69922 -5.12891,-0.0117 -0.0117,4.39844 -4.64843,-0.0117 0.0195,-8.69531 -4.9961,-0.0117 -0.0312,13.07422 9.51953,0.0273 -0.004,1.53906 -0.0156,7.52344 -0.004,0.71875 -4.80078,-0.0117 -0.004,0.22656 -4.71875,-0.008 z m 0,0"
     id="path2227" /></svg>
