<svg width="1252" height="952" viewBox="0 0 939 714" version="1.2" xml:space="preserve" xmlns="http://www.w3.org/2000/svg"><path style="fill:#566c8c;fill-opacity:1;fill-rule:evenodd;stroke:none;stroke-width:.75;stroke-linecap:butt;stroke-linejoin:miter;stroke-miterlimit:4;stroke-opacity:1" d="m380.813 300.957 2.43.008 2.714.004.023-8.496 3.97.012-.009 4.183 5.547.016.02-7.14 2.078.007v1.125l4.62.008v-1.086l1.954.012-.02 7.254 5.364.008.011-4.68 4.387.008-.023 8.856 2.355.011 2.793.004.024-9.28.008-3.755-4.668-.015v-.235l-4.965-.011.027-9.739 9.64.02.032-13.121-5.149-.012-.02 8.664-4.565-.008.011-4.434-5.156-.008-.027 9.754-8.578-.023.027-9.7-5.129-.011-.012 4.398-4.648-.011.02-8.696-4.997-.011-.03 13.074 9.519.027-.004 1.54-.016 7.523-.004.719-4.8-.012-.005.226-4.719-.008zm0 0"/></svg>