<?xml version="1.0" encoding="UTF-8" standalone="no"?>
<svg
   width="939pt"
   height="714pt"
   viewBox="0 0 939 714"
   version="1.2"
   id="svg9750"
   sodipodi:docname="osu-base.svg"
   inkscape:version="1.3.2 (091e20e, 2023-11-25, custom)"
   inkscape:export-filename="buildings/waldo-hall.svg"
   inkscape:export-xdpi="96"
   inkscape:export-ydpi="96"
   xml:space="preserve"
   xmlns:inkscape="http://www.inkscape.org/namespaces/inkscape"
   xmlns:sodipodi="http://sodipodi.sourceforge.net/DTD/sodipodi-0.dtd"
   xmlns="http://www.w3.org/2000/svg"
   xmlns:svg="http://www.w3.org/2000/svg"><sodipodi:namedview
     id="namedview9750"
     pagecolor="#ffffff"
     bordercolor="#666666"
     borderopacity="1.0"
     inkscape:showpageshadow="2"
     inkscape:pageopacity="0.0"
     inkscape:pagecheckerboard="0"
     inkscape:deskcolor="#d1d1d1"
     inkscape:document-units="pt"
     inkscape:zoom="8"
     inkscape:cx="803.0625"
     inkscape:cy="498.6875"
     inkscape:window-width="1920"
     inkscape:window-height="1057"
     inkscape:window-x="-8"
     inkscape:window-y="-8"
     inkscape:window-maximized="1"
     inkscape:current-layer="svg9750" /><defs
     id="defs1612" /><path
     style="fill:#566c8c;fill-opacity:1;fill-rule:evenodd;stroke:none;stroke-width:0.75;stroke-linecap:butt;stroke-linejoin:miter;stroke-miterlimit:4;stroke-opacity:1"
     d="m 616.85547,321.96094 1.26562,0.004 -0.0117,1.89063 1.96875,0.0156 -0.0352,5.91797 -1.42969,-0.008 -0.0508,8.83594 8.23437,0.0508 0.008,-1.88672 3.23828,0.0195 0.043,1.55469 1.94531,-0.043 -0.043,-4.40625 -1.85547,0.0391 -0.0469,-10.0664 2.07422,0.082 -0.004,1.02734 0.44141,0.004 -0.10157,17.53515 1.82813,0.0117 -0.008,1.33203 0.96093,0.008 -0.008,1.78125 -4.92187,-0.0312 0.004,-1.46485 -3.23437,-0.0195 -0.004,1.37109 -5.68359,-0.0351 0.008,-1.21875 -4.42969,-0.0195 -0.0547,10.1289 3.33985,0.0195 -0.043,6.88282 18.66016,0.10937 0.008,-1.80469 0.96094,0.008 0.0273,-5.29688 0.0547,-8.51953 -2.25782,-0.0117 0.0586,-9.92578 0.87109,0.004 0.0195,-3.10938 -0.85156,-0.004 0.0391,-6.8711 0.60938,0.004 0.0391,-6.73438 -4.25,-0.0234 -0.004,0.54687 -5.96484,-0.0312 0.004,-0.75 -3.11328,-0.0195 v 0.64062 l -8.28907,-0.0508 z m 0,0"
     id="path2228" /></svg>
