<svg width="1252" height="952" viewBox="0 0 939 714" version="1.2" xml:space="preserve" xmlns="http://www.w3.org/2000/svg"><path style="fill:#566c8c;fill-opacity:1;fill-rule:evenodd;stroke:none;stroke-width:.75;stroke-linecap:butt;stroke-linejoin:miter;stroke-miterlimit:4;stroke-opacity:1" d="m616.855 321.96 1.266.005-.012 1.89 1.97.016-.036 5.918-1.43-.008-.05 8.836 8.234.05.008-1.886 3.238.02.043 1.554 1.945-.043-.043-4.406-1.855.04-.047-10.067 2.074.082-.004 1.027.442.004-.102 17.535 1.828.012-.008 1.332.961.008-.008 1.781-4.922-.03.004-1.466-3.234-.02-.004 1.372-5.684-.035.008-1.219-4.43-.02-.054 10.13 3.34.019-.043 6.883 18.66.109.008-1.805.96.008.028-5.297.055-8.52-2.258-.01.059-9.927.87.004.02-3.109-.851-.004.039-6.871.61.004.038-6.734-4.25-.024-.004.547-5.965-.031.004-.75-3.113-.02v.641l-8.289-.05zm0 0"/></svg>