<?xml version="1.0" encoding="UTF-8" standalone="no"?>
<svg
   width="939pt"
   height="714pt"
   viewBox="0 0 939 714"
   version="1.2"
   id="svg9750"
   sodipodi:docname="osu-base.svg"
   inkscape:version="1.3.2 (091e20e, 2023-11-25, custom)"
   inkscape:export-filename="buildings/student-experience.svg"
   inkscape:export-xdpi="96"
   inkscape:export-ydpi="96"
   xml:space="preserve"
   xmlns:inkscape="http://www.inkscape.org/namespaces/inkscape"
   xmlns:sodipodi="http://sodipodi.sourceforge.net/DTD/sodipodi-0.dtd"
   xmlns="http://www.w3.org/2000/svg"
   xmlns:svg="http://www.w3.org/2000/svg"><sodipodi:namedview
     id="namedview9750"
     pagecolor="#ffffff"
     bordercolor="#666666"
     borderopacity="1.0"
     inkscape:showpageshadow="2"
     inkscape:pageopacity="0.0"
     inkscape:pagecheckerboard="0"
     inkscape:deskcolor="#d1d1d1"
     inkscape:document-units="pt"
     inkscape:zoom="4"
     inkscape:cx="1028.375"
     inkscape:cy="503.125"
     inkscape:window-width="1920"
     inkscape:window-height="1057"
     inkscape:window-x="-8"
     inkscape:window-y="-8"
     inkscape:window-maximized="1"
     inkscape:current-layer="svg9750" /><defs
     id="defs1612" /><path
     style="fill:#566c8c;fill-opacity:1;fill-rule:evenodd;stroke:none;stroke-width:0.75;stroke-linecap:butt;stroke-linejoin:miter;stroke-miterlimit:4;stroke-opacity:1"
     d="m 593.79687,284.92969 h 4.08985 v -0.69922 h 3.91015 l 3.89063,0.004 v 0.83204 l 4.99219,0.004 0.0312,-9.65625 -4.28516,-0.004 v 0.91406 h -3.02734 v -3.05469 h 3.60937 l 0.0312,-5.69922 h -1.54687 l 0.0312,-7.46484 H 606.75 v -4.62891 l -3.73828,-0.004 v -3.86719 l 4.3164,0.004 v 0.83204 h 2.73829 v -9.22657 h -3.44532 v 0.6836 l -8.53906,-0.004 v -0.79687 l -3.80469,-0.004 v 9.17187 l 3.25391,0.004 v -0.74219 l 4.03125,0.008 v 4.04296 l -3.32031,-0.004 v 17.11328 h 3.22265 v 3.82031 l -3.54687,-0.004 v -1.23829 l -4.08985,-0.004 -0.0312,7.60547 z m 0,0"
     id="path2259" /></svg>
