<svg width="1252" height="952" viewBox="0 0 939 714" version="1.2" xml:space="preserve" xmlns="http://www.w3.org/2000/svg"><path style="fill:#566c8c;fill-opacity:1;fill-rule:evenodd;stroke:none;stroke-width:.75;stroke-linecap:butt;stroke-linejoin:miter;stroke-miterlimit:4;stroke-opacity:1" d="M593.797 284.93h4.09v-.7h3.91l3.89.004v.833l4.993.004.03-9.657-4.284-.004v.914h-3.028v-3.054h3.61l.031-5.7h-1.547l.031-7.464h1.227v-4.63l-3.738-.003v-3.868l4.316.004v.833h2.738v-9.227h-3.445v.684l-8.539-.004v-.797l-3.805-.004v9.172l3.254.004v-.743l4.032.008v4.043l-3.32-.004v17.114h3.222v3.82l-3.547-.004v-1.238l-4.09-.004-.031 7.605zm0 0"/></svg>