<?xml version="1.0" encoding="UTF-8" standalone="no"?>
<svg
   width="939pt"
   height="714pt"
   viewBox="0 0 939 714"
   version="1.2"
   id="svg9750"
   sodipodi:docname="osu-base.svg"
   inkscape:version="1.3.2 (091e20e, 2023-11-25, custom)"
   inkscape:export-filename="buildings/mcnary-dining.svg"
   inkscape:export-xdpi="96"
   inkscape:export-ydpi="96"
   xml:space="preserve"
   xmlns:inkscape="http://www.inkscape.org/namespaces/inkscape"
   xmlns:sodipodi="http://sodipodi.sourceforge.net/DTD/sodipodi-0.dtd"
   xmlns="http://www.w3.org/2000/svg"
   xmlns:svg="http://www.w3.org/2000/svg"><sodipodi:namedview
     id="namedview9750"
     pagecolor="#ffffff"
     bordercolor="#666666"
     borderopacity="1.0"
     inkscape:showpageshadow="2"
     inkscape:pageopacity="0.0"
     inkscape:pagecheckerboard="0"
     inkscape:deskcolor="#d1d1d1"
     inkscape:document-units="pt"
     inkscape:zoom="8"
     inkscape:cx="920.5625"
     inkscape:cy="468.9375"
     inkscape:window-width="1920"
     inkscape:window-height="1057"
     inkscape:window-x="-8"
     inkscape:window-y="-8"
     inkscape:window-maximized="1"
     inkscape:current-layer="svg9750" /><defs
     id="defs1612" /><path
     style="fill:#566c8c;fill-opacity:1;fill-rule:evenodd;stroke:none;stroke-width:0.75;stroke-linecap:butt;stroke-linejoin:miter;stroke-miterlimit:4;stroke-opacity:1"
     d="m 740.44922,397.55078 7.71484,0.0977 0.0274,-2.3711 2.91406,0.0352 -0.0352,2.46094 6.33203,0.082 0.0312,-2.55078 1.1836,0.0117 0.0234,-1.84766 0.69532,0.008 0.0742,-5.76562 -0.72657,-0.008 0.0352,-3.1289 0.72656,0.0117 0.0742,-5.76953 -0.83984,-0.008 0.043,-3.17578 0.75781,0.0117 0.0742,-5.78906 -0.72266,-0.0156 0.043,-3.16797 0.82812,0.0117 0.0391,-2.82422 -0.8086,-0.008 0.0195,-1.58203 -3.47656,-0.0508 -0.0195,1.1875 -2.30469,-0.0352 -0.0742,5.30078 -0.63671,-0.008 -0.082,5.92578 0.77344,0.0117 -0.043,3.27735 -0.69531,-0.0117 -0.0742,5.89453 0.71094,0.008 -0.082,6.38672 -11.10156,-0.14453 -0.0547,4.26953 -1.30469,-0.0156 z m 0,0"
     id="path2286" /></svg>
