<svg width="1252" height="952" viewBox="0 0 939 714" version="1.2" xml:space="preserve" xmlns="http://www.w3.org/2000/svg"><path style="fill:#566c8c;fill-opacity:1;fill-rule:evenodd;stroke:none;stroke-width:.75;stroke-linecap:butt;stroke-linejoin:miter;stroke-miterlimit:4;stroke-opacity:1" d="m740.45 397.55 7.714.098.027-2.37 2.915.035-.036 2.46 6.332.083.032-2.551 1.183.011.024-1.847.695.008.074-5.766-.727-.008.036-3.129.726.012.074-5.77-.84-.008.044-3.175.757.011.075-5.789-.723-.015.043-3.168.828.011.04-2.824-.81-.008.02-1.582-3.476-.05-.02 1.187-2.305-.035-.074 5.3-.637-.008-.082 5.926.774.012-.043 3.277-.695-.011-.075 5.894.711.008-.082 6.387-11.101-.145-.055 4.27-1.305-.016zm0 0"/></svg>