<?xml version="1.0" encoding="UTF-8" standalone="no"?>
<svg
   width="939pt"
   height="714pt"
   viewBox="0 0 939 714"
   version="1.2"
   id="svg9750"
   sodipodi:docname="osu-base.svg"
   inkscape:version="1.3.2 (091e20e, 2023-11-25, custom)"
   inkscape:export-filename="buildings/milne-center.svg"
   inkscape:export-xdpi="96"
   inkscape:export-ydpi="96"
   xml:space="preserve"
   xmlns:inkscape="http://www.inkscape.org/namespaces/inkscape"
   xmlns:sodipodi="http://sodipodi.sourceforge.net/DTD/sodipodi-0.dtd"
   xmlns="http://www.w3.org/2000/svg"
   xmlns:svg="http://www.w3.org/2000/svg"><sodipodi:namedview
     id="namedview9750"
     pagecolor="#ffffff"
     bordercolor="#666666"
     borderopacity="1.0"
     inkscape:showpageshadow="2"
     inkscape:pageopacity="0.0"
     inkscape:pagecheckerboard="0"
     inkscape:deskcolor="#d1d1d1"
     inkscape:document-units="pt"
     inkscape:zoom="5.6568543"
     inkscape:cx="819.80192"
     inkscape:cy="309.27083"
     inkscape:window-width="1920"
     inkscape:window-height="1057"
     inkscape:window-x="-8"
     inkscape:window-y="-8"
     inkscape:window-maximized="1"
     inkscape:current-layer="svg9750" /><defs
     id="defs1612" /><path
     style="fill:#566c8c;fill-opacity:1;fill-rule:evenodd;stroke:none;stroke-width:0.75;stroke-linecap:butt;stroke-linejoin:miter;stroke-miterlimit:4;stroke-opacity:1"
     d="m 620.26953,300.29687 0.0234,1.87891 0.42187,-0.0312 -0.0273,3.00781 28.51172,0.32422 -0.043,-6.40625 2.29297,0.0586 -0.0859,-8.33204 1.57422,0.1875 1.63672,-4.46484 -2.0586,0.0977 0.0352,-0.42578 0.0352,-0.42188 2.77734,-0.10937 1.66406,-1.01954 0.89844,-1.23046 0.60156,-1.41407 -0.12109,-1.70703 -0.69922,-1.35547 -1.42578,-1.3125 -1.66406,-0.54687 -0.0469,-0.4961 -12.23047,-0.11328 0.0234,-0.80468 -2.36719,0.0117 -2.1289,-0.0351 v 0.76172 l -2.85547,0.004 -12.00391,0.0195 0.0195,8.60547 -1.92968,0.0234 -0.004,5.98828 h 2.17187 l 0.008,9.25391 z m 0,0"
     id="path2224" /></svg>
