<svg width="1252" height="952" viewBox="0 0 939 714" version="1.2" xml:space="preserve" xmlns="http://www.w3.org/2000/svg"><path style="fill:#566c8c;fill-opacity:1;fill-rule:evenodd;stroke:none;stroke-width:.75;stroke-linecap:butt;stroke-linejoin:miter;stroke-miterlimit:4;stroke-opacity:1" d="m620.27 300.297.023 1.879.422-.031-.027 3.007 28.511.325-.043-6.407 2.293.059-.086-8.332 1.575.187 1.636-4.464-2.058.097.035-.425.035-.422 2.777-.11 1.664-1.02.899-1.23.601-1.414-.12-1.707-.7-1.355-1.426-1.313-1.664-.547-.047-.496-12.23-.113.023-.805-2.367.012-2.129-.035v.762l-2.855.004-12.004.02.02 8.605-1.93.023-.004 5.988h2.172l.008 9.254zm0 0"/></svg>