<svg width="1252" height="952" viewBox="0 0 939 714" version="1.2" xml:space="preserve" xmlns="http://www.w3.org/2000/svg"><path style="fill:#566c8c;fill-opacity:1;fill-rule:evenodd;stroke:none;stroke-width:.75;stroke-linecap:butt;stroke-linejoin:miter;stroke-miterlimit:4;stroke-opacity:1" d="m593.012 348.96 5.789.173v2.77h3.37v-2.942h4.669l.086-6.48-2.594-.086v-4.067l.621.113.559-.062.289-.223.156-.484.02-.55-.172-.567-.246-.555.847-.004v-3.8h-.863v-.954l.164-.64-.035-.489-.176-.36-.363-.425-.54-.242-.085-3.2 2.418-.09.086-6.738-13.743.086.086 6.653 4.325.09-.09 5.875h-2.508l.015 4.476 2.235-.066.09 5.875-4.41.172zm0 0"/></svg>