<?xml version="1.0" encoding="UTF-8" standalone="no"?>
<svg
   width="939pt"
   height="714pt"
   viewBox="0 0 939 714"
   version="1.2"
   id="svg9750"
   sodipodi:docname="osu-base.svg"
   inkscape:version="1.3.2 (091e20e, 2023-11-25, custom)"
   inkscape:export-filename="buildings/goss-stadium.svg"
   inkscape:export-xdpi="96"
   inkscape:export-ydpi="96"
   xml:space="preserve"
   xmlns:inkscape="http://www.inkscape.org/namespaces/inkscape"
   xmlns:sodipodi="http://sodipodi.sourceforge.net/DTD/sodipodi-0.dtd"
   xmlns="http://www.w3.org/2000/svg"
   xmlns:svg="http://www.w3.org/2000/svg"><sodipodi:namedview
     id="namedview9750"
     pagecolor="#ffffff"
     bordercolor="#666666"
     borderopacity="1.0"
     inkscape:showpageshadow="2"
     inkscape:pageopacity="0.0"
     inkscape:pagecheckerboard="0"
     inkscape:deskcolor="#d1d1d1"
     inkscape:document-units="pt"
     inkscape:zoom="8"
     inkscape:cx="803.0625"
     inkscape:cy="498.6875"
     inkscape:window-width="1920"
     inkscape:window-height="1057"
     inkscape:window-x="-8"
     inkscape:window-y="-8"
     inkscape:window-maximized="1"
     inkscape:current-layer="svg9750" /><defs
     id="defs1612" /><path
     style="fill:#566c8c;fill-opacity:1;fill-rule:evenodd;stroke:none;stroke-width:0.75;stroke-linecap:butt;stroke-linejoin:miter;stroke-miterlimit:4;stroke-opacity:1"
     d="m 593.01172,348.96094 5.78906,0.17187 v 2.76953 h 3.37109 v -2.9414 h 4.66797 l 0.0859,-6.48047 -2.59375,-0.0859 v -4.06641 l 0.62109,0.11329 0.5586,-0.0625 0.28906,-0.22266 0.15625,-0.48438 0.0195,-0.55078 -0.17187,-0.5664 -0.2461,-0.55469 0.84766,-0.004 v -3.80078 h -0.86328 v -0.95312 l 0.16406,-0.64063 -0.0352,-0.48828 -0.17578,-0.35937 -0.36328,-0.42579 -0.53906,-0.24218 -0.0859,-3.19922 2.41797,-0.0899 0.0859,-6.73828 -13.74219,0.0859 0.0859,6.65234 4.32422,0.0899 -0.0899,5.875 h -2.50781 l 0.0156,4.47656 2.23437,-0.0664 0.0898,5.875 -4.41015,0.17188 z m 0,0"
     id="path2278" /></svg>
