<svg width="1252" height="952" viewBox="0 0 939 714" version="1.2" xmlns="http://www.w3.org/2000/svg"><path style="fill:#566c8c;fill-opacity:1;fill-rule:evenodd;stroke:#566c8c;stroke-width:.75;stroke-linecap:butt;stroke-linejoin:miter;stroke-miterlimit:4;stroke-opacity:1" d="m449.617 441.21.285 28.645.461-.004.008.653.028.812.027.528-.328.015.039.653.3 3.632-.406.032.235 3.203.242.406.008.75-.566.004.039 4.129 14.125-.133-.035-3.61-.54-1.929.352.016.055-1.453-.406-1.465.503-.008-.043-2.707-.46-1.79.453-.007-.043-1.957-.442.011-.168-7.422-.011-.859v-2.57h.378l.024-17.621zm0 0"/></svg>