<?xml version="1.0" encoding="UTF-8" standalone="no"?>
<svg
   width="939pt"
   height="714pt"
   viewBox="0 0 939 714"
   version="1.2"
   id="svg9750"
   sodipodi:docname="wayne-performance.svg"
   inkscape:version="1.3.2 (091e20e, 2023-11-25)"
   inkscape:export-filename="buildings\gill-coliseum.svg"
   inkscape:export-xdpi="96"
   inkscape:export-ydpi="96"
   xmlns:inkscape="http://www.inkscape.org/namespaces/inkscape"
   xmlns:sodipodi="http://sodipodi.sourceforge.net/DTD/sodipodi-0.dtd"
   xmlns="http://www.w3.org/2000/svg"
   xmlns:svg="http://www.w3.org/2000/svg">
  <sodipodi:namedview
     id="namedview9750"
     pagecolor="#ffffff"
     bordercolor="#666666"
     borderopacity="1.0"
     inkscape:showpageshadow="2"
     inkscape:pageopacity="0.0"
     inkscape:pagecheckerboard="0"
     inkscape:deskcolor="#d1d1d1"
     inkscape:document-units="pt"
     inkscape:zoom="2"
     inkscape:cx="538.5"
     inkscape:cy="694.5"
     inkscape:window-width="1312"
     inkscape:window-height="635"
     inkscape:window-x="0"
     inkscape:window-y="37"
     inkscape:window-maximized="0"
     inkscape:current-layer="svg9750" />
  <defs
     id="defs1612" />
  <path
     style="fill:#566c8c;fill-opacity:1;fill-rule:evenodd;stroke:#566c8c;stroke-width:0.75;stroke-linecap:butt;stroke-linejoin:miter;stroke-miterlimit:4;stroke-opacity:1"
     d="m 449.61719,441.21094 0.28515,28.64453 0.46094,-0.004 0.008,0.65235 0.0274,0.8125 0.0273,0.52734 -0.32812,0.0156 0.0391,0.65235 0.30078,3.63281 -0.40625,0.0312 0.23437,3.20313 0.24219,0.40625 0.008,0.75 -0.5664,0.004 0.0391,4.12891 14.125,-0.13281 -0.0352,-3.60938 -0.53906,-1.92969 0.35156,0.0156 0.0547,-1.45313 -0.40625,-1.46484 0.50391,-0.008 -0.043,-2.70703 -0.46094,-1.78907 0.45313,-0.008 -0.043,-1.95703 -0.44141,0.0117 -0.16797,-7.42188 -0.0117,-0.85937 v -2.57031 h 0.37891 l 0.0234,-17.6211 z m 0,0"
     id="path2239" />
</svg>
