<svg width="1252" height="952" viewBox="0 0 939 714" version="1.2" xml:space="preserve" xmlns="http://www.w3.org/2000/svg"><path style="fill:#566c8c;fill-opacity:1;fill-rule:evenodd;stroke:none;stroke-width:.75;stroke-linecap:butt;stroke-linejoin:miter;stroke-miterlimit:4;stroke-opacity:1" d="m472.738 331.352 4.672-.028v-3.89l9.785-.028.614.559v.453l.062 3.523 1.11-.004.527.528-3.27 3.16 1.867 1.805-.835.794.282.277.51 1.324.498.587.578.369.396.285.69.211.759-.847.462.449 1.735 1.64.558-.484 2.66-2.57-.011.972 4.504.06v.726l.023 9.875-4.004.035-.031 4.578 9.484-.04-.027-4.64-.676.027.047-1.152-.031-9.383.492-.03.024-4.79-6.774-.113-1.11-.961.079-1.645-1.66-1.695-1.926-1.918-1.82-.055-.247-.586.055-3.714.004-2.903-4.84-.055v.54l-10.488.02-.004-.474-4.664-.058-.031 7.734z"/></svg>