<?xml version="1.0" encoding="UTF-8" standalone="no"?>
<svg
   width="939pt"
   height="714pt"
   viewBox="0 0 939 714"
   version="1.2"
   id="svg9750"
   sodipodi:docname="osu-base.svg"
   inkscape:version="1.3.2 (091e20e, 2023-11-25, custom)"
   inkscape:export-filename="buildings\weatherford-hall.svg"
   inkscape:export-xdpi="96"
   inkscape:export-ydpi="96"
   xml:space="preserve"
   xmlns:inkscape="http://www.inkscape.org/namespaces/inkscape"
   xmlns:sodipodi="http://sodipodi.sourceforge.net/DTD/sodipodi-0.dtd"
   xmlns="http://www.w3.org/2000/svg"
   xmlns:svg="http://www.w3.org/2000/svg"><sodipodi:namedview
     id="namedview9750"
     pagecolor="#ffffff"
     bordercolor="#666666"
     borderopacity="1.0"
     inkscape:showpageshadow="2"
     inkscape:pageopacity="0.0"
     inkscape:pagecheckerboard="0"
     inkscape:deskcolor="#d1d1d1"
     inkscape:document-units="pt"
     inkscape:zoom="46.127107"
     inkscape:cx="656.55537"
     inkscape:cy="451.43737"
     inkscape:window-width="1920"
     inkscape:window-height="1057"
     inkscape:window-x="-8"
     inkscape:window-y="-8"
     inkscape:window-maximized="1"
     inkscape:current-layer="svg9750" /><defs
     id="defs1612" /><path
     style="fill:#566c8c;fill-opacity:1;fill-rule:evenodd;stroke:none;stroke-width:0.75;stroke-linecap:butt;stroke-linejoin:miter;stroke-miterlimit:4;stroke-opacity:1"
     d="m 472.73828,331.35156 4.67188,-0.0273 v -3.89063 l 9.78515,-0.0273 0.61328,0.55859 v 0.45313 l 0.0625,3.52344 1.10938,-0.004 0.52734,0.52734 -3.26953,3.16016 1.86719,1.80469 -0.83508,0.79406 0.2813,0.27755 0.51124,1.3238 0.49706,0.58717 0.57753,0.36872 0.39646,0.28536 0.69063,0.21093 0.75806,-0.84755 0.46264,0.44918 1.73438,1.64062 0.55859,-0.48437 2.66016,-2.57032 -0.0117,0.97266 4.5039,0.0586 v 0.72657 l 0.0234,9.875 -4.0039,0.0351 -0.0312,4.57813 9.48437,-0.0391 -0.0273,-4.64062 -0.67578,0.0273 0.0469,-1.15234 -0.0312,-9.38281 0.49219,-0.0312 0.0234,-4.78907 -6.77344,-0.11328 -1.10938,-0.96093 0.0781,-1.64454 -1.66016,-1.69531 -1.92578,-1.91797 -1.82031,-0.0547 -0.2461,-0.58594 0.0547,-3.71485 0.004,-2.90234 -4.83985,-0.0547 v 0.53907 l -10.48828,0.0195 -0.004,-0.47266 -4.66407,-0.0586 -0.0312,7.73437 z"
     id="path2274"
     sodipodi:nodetypes="cccccccccccccccccccccccccccccccccccccccccccccccccccc" /></svg>
