<?xml version="1.0" encoding="UTF-8" standalone="no"?>
<svg
   width="939pt"
   height="714pt"
   viewBox="0 0 939 714"
   version="1.2"
   id="svg9750"
   sodipodi:docname="osu-base.svg"
   inkscape:version="1.3.2 (091e20e, 2023-11-25, custom)"
   inkscape:export-filename="buildings/flr-warehouse.svg"
   inkscape:export-xdpi="96"
   inkscape:export-ydpi="96"
   xml:space="preserve"
   xmlns:inkscape="http://www.inkscape.org/namespaces/inkscape"
   xmlns:sodipodi="http://sodipodi.sourceforge.net/DTD/sodipodi-0.dtd"
   xmlns="http://www.w3.org/2000/svg"
   xmlns:svg="http://www.w3.org/2000/svg"><sodipodi:namedview
     id="namedview9750"
     pagecolor="#ffffff"
     bordercolor="#666666"
     borderopacity="1.0"
     inkscape:showpageshadow="2"
     inkscape:pageopacity="0.0"
     inkscape:pagecheckerboard="0"
     inkscape:deskcolor="#d1d1d1"
     inkscape:document-units="pt"
     inkscape:zoom="4"
     inkscape:cx="508.625"
     inkscape:cy="831.875"
     inkscape:window-width="1920"
     inkscape:window-height="1057"
     inkscape:window-x="-8"
     inkscape:window-y="-8"
     inkscape:window-maximized="1"
     inkscape:current-layer="svg9750" /><defs
     id="defs1612" /><path
     style="fill:#566c8c;fill-opacity:1;fill-rule:evenodd;stroke:none;stroke-width:0.75;stroke-linecap:butt;stroke-linejoin:miter;stroke-miterlimit:4;stroke-opacity:1"
     d="m 147.78906,627.08203 0.0312,8.39063 8.23438,-0.0312 0.0117,2.83984 4.59765,-0.0195 0.0195,4.55859 21.25,-0.0781 -0.008,-1.47657 1.55469,-0.008 -0.0273,-6.85156 -2.95312,0.008 -0.008,-0.98047 3.60156,-0.0156 0.008,2.24219 3.61328,-0.0156 -0.0312,-8.32422 -3.35156,0.0117 0.0195,4.60156 -2.89453,0.0117 -0.004,-1.64453 -0.0117,-3.12109 -5.81641,0.0156 0.008,2.06641 -1.08594,0.008 -0.0312,-8.63281 -2.42187,0.008 0.0273,8.26953 h -0.75781 l -0.0234,-6.76562 -11.1914,0.0469 0.0195,4.83985 z m 0,0"
     id="path2245" /></svg>
