<svg width="1252" height="952" viewBox="0 0 939 714" version="1.2" xml:space="preserve" xmlns="http://www.w3.org/2000/svg"><path style="fill:#566c8c;fill-opacity:1;fill-rule:evenodd;stroke:none;stroke-width:.75;stroke-linecap:butt;stroke-linejoin:miter;stroke-miterlimit:4;stroke-opacity:1" d="m147.79 627.082.03 8.39 8.235-.03.011 2.84 4.598-.02.02 4.558 21.25-.078-.009-1.476 1.555-.008-.027-6.852-2.953.008-.008-.98 3.601-.016.008 2.242 3.614-.015-.032-8.325-3.351.012.02 4.602-2.895.011-.004-1.644-.012-3.121-5.816.015.008 2.067-1.086.008-.031-8.633-2.422.008.027 8.27h-.758l-.023-6.766-11.192.047.02 4.84zm0 0"/></svg>