<svg width="1252" height="952" viewBox="0 0 939 714" version="1.2" xml:space="preserve" xmlns="http://www.w3.org/2000/svg"><path style="fill:#566c8c;fill-opacity:1;fill-rule:evenodd;stroke:none;stroke-width:.75;stroke-linecap:butt;stroke-linejoin:miter;stroke-miterlimit:4;stroke-opacity:1" d="m231.898 169.996 8.93.016 1.567.004 4.039.011-.032 15.04-4.043-.009-.793-.008-.004 1.43-1.808-.004-.004 1.82 50.215.106-.012 5.289 4.477.008v-.937l2.691.004v.93h1.566l.004-.99.563.005v.988h.238l1.945.008h.801l.004-.828 16.422.035.012-6.234-5.781-.012v-19.565h-1.922v19.561l-9.176-.02v-19.54h-1.973v19.537l-6.797-.016v-.687h-.921l-.004.671-7.04-.02v-16.433h4.96v-3.237h-10.294v3.237h3.088v16.434l-15.008-.035v-1.266l.036-15.238 3.656.008h.379l.008-3.031-9.442-.024-.008 3.059 3.547.008-.031 15.18-.004 1.34-17.7-.036.005-1.297.031-15.273 3.703.008.3.004.009-3.11-20.39-.043z"/></svg>