<svg width="1252" height="952" viewBox="0 0 939 714" version="1.2" xml:space="preserve" xmlns="http://www.w3.org/2000/svg"><path style="fill:#566c8c;fill-opacity:1;fill-rule:evenodd;stroke:none;stroke-width:.75;stroke-linecap:butt;stroke-linejoin:miter;stroke-miterlimit:4;stroke-opacity:1" d="m379.805 205.375 1.425-.008-.023 1.89 7.059.032.02-2.594 3.382.012 8.242.043v.289l10.969.015.039-.25 2.508.118.047-9.516.925.031-.008-3.156-.78-.023v-.282h1.027l.011-6.437-1.351.011-3.23 1.047-.02.313-1.211.015.012-.132-1.579.011.02-4.125-4.07.063.008-.184-3.25-.011-.035 1.136-4.102-.011.02 11.71-7.575.009.024-9.211-7.079-.016-.03 16.457h-1.329zm0 0"/></svg>