<?xml version="1.0" encoding="UTF-8" standalone="no"?>
<svg
   width="939pt"
   height="714pt"
   viewBox="0 0 939 714"
   version="1.2"
   id="svg9750"
   sodipodi:docname="osu-base.svg"
   inkscape:version="1.3.2 (091e20e, 2023-11-25, custom)"
   inkscape:export-filename="buildings/pauling-science.svg"
   inkscape:export-xdpi="96"
   inkscape:export-ydpi="96"
   xml:space="preserve"
   xmlns:inkscape="http://www.inkscape.org/namespaces/inkscape"
   xmlns:sodipodi="http://sodipodi.sourceforge.net/DTD/sodipodi-0.dtd"
   xmlns="http://www.w3.org/2000/svg"
   xmlns:svg="http://www.w3.org/2000/svg"><sodipodi:namedview
     id="namedview9750"
     pagecolor="#ffffff"
     bordercolor="#666666"
     borderopacity="1.0"
     inkscape:showpageshadow="2"
     inkscape:pageopacity="0.0"
     inkscape:pagecheckerboard="0"
     inkscape:deskcolor="#d1d1d1"
     inkscape:document-units="pt"
     inkscape:zoom="4.0770988"
     inkscape:cx="617.71867"
     inkscape:cy="320.20318"
     inkscape:window-width="1920"
     inkscape:window-height="1057"
     inkscape:window-x="-8"
     inkscape:window-y="-8"
     inkscape:window-maximized="1"
     inkscape:current-layer="svg9750" /><defs
     id="defs1612" /><path
     style="fill:#566c8c;fill-opacity:1;fill-rule:evenodd;stroke:none;stroke-width:0.75;stroke-linecap:butt;stroke-linejoin:miter;stroke-miterlimit:4;stroke-opacity:1"
     d="m 379.80469,205.375 1.42578,-0.008 -0.0234,1.89062 7.05859,0.0312 0.0195,-2.59375 3.38281,0.0117 8.24219,0.043 v 0.28906 l 10.96875,0.0156 0.0391,-0.25 2.50781,0.11718 0.0469,-9.51562 0.92578,0.0312 -0.008,-3.15625 -0.78125,-0.0234 v -0.28125 h 1.02735 l 0.0117,-6.4375 -1.35157,0.0117 -3.23046,1.04688 -0.0195,0.3125 -1.21093,0.0156 0.0117,-0.13281 -1.57813,0.0117 0.0195,-4.125 -4.07031,0.0625 0.008,-0.1836 -3.25,-0.0117 -0.0351,1.13672 -4.10157,-0.0117 0.0195,11.71094 -7.57421,0.008 0.0234,-9.21093 -7.07812,-0.0156 -0.0312,16.45703 h -1.32813 z m 0,0"
     id="path2240" /></svg>
